<?xml version="1.0" encoding="utf-8"?>
<!-- Generator: Adobe Illustrator 24.0.1, SVG Export Plug-In . SVG Version: 6.00 Build 0)  -->
<svg version="1.1" xmlns="http://www.w3.org/2000/svg" xmlns:xlink="http://www.w3.org/1999/xlink" x="0px" y="0px"
	 viewBox="0 0 1024 576" style="enable-background:new 0 0 1024 576;" xml:space="preserve">
<style type="text/css">
	.st0{fill:url(#SVGID_1_);stroke:#000000;stroke-miterlimit:10;}
	.st1{fill:#FFFFFF;}
	.st2{opacity:0.7;}
	.st3{opacity:0.65;}
	.st4{opacity:0.79;}
	.st5{opacity:0.87;}
	.st6{opacity:0.88;}
	.st7{opacity:0.6;}
	.st8{fill:#D9CAEF;}
	.st9{opacity:0.5;}
	.st10{opacity:0.67;}
	.st11{fill:#4F3077;fill-opacity:0.88;}
	.st12{fill:#3A2B68;}
	.st13{fill:#645E8A;}
	.st14{display:none;}
	.st15{display:inline;fill:url(#SVGID_2_);}
	.st16{display:inline;fill:#462C70;fill-opacity:0.88;}
	.st17{fill:#462C70;}
	.st18{display:inline;fill:url(#SVGID_3_);}
	.st19{opacity:0.96;}
	.st20{fill:url(#SVGID_4_);}
	.st21{opacity:0.46;}
	.st22{clip-path:url(#SVGID_6_);fill:#CCCCCC;}
	.st23{opacity:0.85;clip-path:url(#SVGID_6_);fill:#CCCCCC;}
	.st24{opacity:0.75;clip-path:url(#SVGID_6_);fill:#CCCCCC;}
	.st25{opacity:0.87;clip-path:url(#SVGID_6_);fill:#CCCCCC;}
	.st26{opacity:0.9;clip-path:url(#SVGID_6_);fill:#CCCCCC;}
	.st27{opacity:0.71;clip-path:url(#SVGID_6_);fill:#CCCCCC;}
</style>
<g id="colour_palete">
</g>
<g id="background">
	<linearGradient id="SVGID_1_" gradientUnits="userSpaceOnUse" x1="512" y1="576" x2="512" y2="-9.094947e-13">
		<stop  offset="8.442874e-02" style="stop-color:#DAC7FF"/>
		<stop  offset="0.3512" style="stop-color:#9A7BDD"/>
		<stop  offset="0.3994" style="stop-color:#9172D1"/>
		<stop  offset="0.496" style="stop-color:#8264BD"/>
		<stop  offset="0.5622" style="stop-color:#7D5FB6"/>
		<stop  offset="0.5921" style="stop-color:#7455AF"/>
		<stop  offset="0.7117" style="stop-color:#543095"/>
		<stop  offset="0.8232" style="stop-color:#3C1683"/>
		<stop  offset="0.9227" style="stop-color:#2E0678"/>
		<stop  offset="1" style="stop-color:#290074"/>
	</linearGradient>
	<rect class="st0" width="1024" height="576"/>
</g>
<g id="stars">
	<g>
		<circle class="st1" cx="1020.5" cy="3.4" r="2"/>
	</g>
	<g class="st2">
		<circle class="st1" cx="948.2" cy="105.7" r="0.5"/>
	</g>
	<g class="st3">
		<circle class="st1" cx="441.8" cy="119.9" r="1.3"/>
	</g>
	<g>
		<circle class="st1" cx="411.7" cy="167.8" r="1.3"/>
	</g>
	<g>
		<circle class="st1" cx="514.6" cy="141.6" r="0.4"/>
	</g>
	<g class="st2">
		<ellipse class="st1" cx="938.9" cy="157.6" rx="0.8" ry="1.2"/>
	</g>
	<g>
		<circle class="st1" cx="518.8" cy="185.1" r="0.8"/>
	</g>
	<g class="st3">
		<circle class="st1" cx="489.9" cy="112.7" r="0.9"/>
	</g>
	<g>
		<circle class="st1" cx="405.2" cy="164.6" r="0.7"/>
	</g>
	<g>
		<circle class="st1" cx="456.7" cy="221.7" r="1"/>
	</g>
	<g>
		<circle class="st1" cx="824.8" cy="252.3" r="0.5"/>
	</g>
	<g>
		<circle class="st1" cx="430" cy="292.9" r="0.8"/>
	</g>
	<g>
		<circle class="st1" cx="857.2" cy="267.5" r="0.9"/>
	</g>
	<g>
		<circle class="st1" cx="1003.6" cy="39.2" r="2"/>
	</g>
	<g class="st3">
		<circle class="st1" cx="953.4" cy="22.5" r="0.8"/>
	</g>
	<g class="st3">
		<circle class="st1" cx="912.8" cy="50.6" r="0.8"/>
	</g>
	<g>
		<circle class="st1" cx="946.9" cy="70.6" r="0.8"/>
	</g>
	<g class="st2">
		<circle class="st1" cx="932.5" cy="101.5" r="1"/>
	</g>
	<g>
		<circle class="st1" cx="1005.7" cy="129.3" r="1"/>
	</g>
	<g>
		<ellipse class="st1" cx="683" cy="37.2" rx="0.4" ry="1.2"/>
	</g>
	<g>
		<ellipse class="st1" cx="934.6" cy="172.6" rx="1.1" ry="1.7"/>
	</g>
	<g>
		<circle class="st1" cx="836.3" cy="183.7" r="2.1"/>
	</g>
	<g>
		<circle class="st1" cx="899.6" cy="225" r="1"/>
	</g>
	<g>
		<circle class="st1" cx="983.1" cy="223.6" r="1.9"/>
	</g>
	<g>
		<circle class="st1" cx="1023.3" cy="1.8" r="2.1"/>
	</g>
	<g>
		<circle class="st1" cx="745.9" cy="44.2" r="1.7"/>
	</g>
	<g>
		<circle class="st1" cx="648.9" cy="200.7" r="1.7"/>
	</g>
	<g>
		<circle class="st1" cx="708" cy="167.7" r="0.6"/>
	</g>
	<g>
		<circle class="st1" cx="777.9" cy="167.7" r="1.3"/>
	</g>
	<g class="st2">
		<circle class="st1" cx="874.1" cy="145.1" r="0.7"/>
	</g>
	<g class="st2">
		<circle class="st1" cx="960.1" cy="115.2" r="1"/>
	</g>
	<g>
		<circle class="st1" cx="1003.5" cy="12.4" r="0.7"/>
	</g>
	<g class="st3">
		<circle class="st1" cx="862.9" cy="31.2" r="0.8"/>
	</g>
	<g>
		<circle class="st1" cx="160.9" cy="66.1" r="0.7"/>
	</g>
	<g class="st4">
		<circle class="st1" cx="97.7" cy="224.3" r="1.7"/>
	</g>
	<g>
		<circle class="st1" cx="43.2" cy="268.4" r="0.9"/>
	</g>
	<g>
		<circle class="st1" cx="203.1" cy="266.7" r="0.6"/>
	</g>
	<g class="st5">
		<circle class="st1" cx="151.4" cy="109.9" r="1"/>
	</g>
	<g>
		<circle class="st1" cx="51.9" cy="134.3" r="1.7"/>
	</g>
	<g>
		<circle class="st1" cx="782.8" cy="223.9" r="0.4"/>
	</g>
	<g>
		<circle class="st1" cx="742.6" cy="220.9" r="1.3"/>
	</g>
	<g>
		<circle class="st1" cx="881" cy="191.9" r="0.5"/>
	</g>
	<g>
		<circle class="st1" cx="880.5" cy="78.3" r="1.9"/>
	</g>
	<g>
		<circle class="st1" cx="801.9" cy="206.1" r="0.5"/>
	</g>
	<g>
		<circle class="st1" cx="840.4" cy="221.6" r="2.1"/>
	</g>
	<g class="st3">
		<circle class="st1" cx="471.7" cy="49.6" r="1.3"/>
	</g>
	<g>
		<circle class="st1" cx="410.9" cy="5.3" r="0.5"/>
	</g>
	<g>
		<circle class="st1" cx="562.1" cy="29.7" r="0.7"/>
	</g>
	<g>
		<circle class="st1" cx="114.6" cy="245" r="0.9"/>
	</g>
	<g>
		<circle class="st1" cx="185.7" cy="159.1" r="2"/>
	</g>
	<g>
		<circle class="st1" cx="226.9" cy="216.2" r="1.8"/>
	</g>
	<g>
		<circle class="st1" cx="290.7" cy="189.9" r="0.9"/>
	</g>
	<g>
		<circle class="st1" cx="225.1" cy="164.6" r="1.7"/>
	</g>
	<g>
		<circle class="st1" cx="270.9" cy="186.5" r="0.8"/>
	</g>
	<g class="st5">
		<circle class="st1" cx="239.1" cy="85.8" r="1.8"/>
	</g>
	<g>
		<circle class="st1" cx="151.2" cy="57.8" r="1.6"/>
	</g>
	<g>
		<circle class="st1" cx="882.5" cy="221.6" r="1.7"/>
	</g>
	<g class="st2">
		<circle class="st1" cx="787.2" cy="120.6" r="1.6"/>
	</g>
	<g class="st6">
		<circle class="st1" cx="80.6" cy="102.9" r="1.9"/>
	</g>
	<g>
		<circle class="st1" cx="206.3" cy="13.2" r="1.1"/>
	</g>
	<g>
		<circle class="st1" cx="57" cy="201.4" r="1.9"/>
	</g>
	<g>
		<circle class="st1" cx="188.2" cy="225" r="1.5"/>
	</g>
	<g>
		<circle class="st1" cx="351.4" cy="261.8" r="1.9"/>
	</g>
	<g>
		<circle class="st1" cx="450.8" cy="262.1" r="0.4"/>
	</g>
	<g>
		<circle class="st1" cx="396.1" cy="266.9" r="0.7"/>
	</g>
	<g>
		<circle class="st1" cx="544.2" cy="222.8" r="1.6"/>
	</g>
	<g>
		<circle class="st1" cx="451" cy="136.3" r="0.4"/>
	</g>
	<g>
		<circle class="st1" cx="352.5" cy="112.7" r="1.1"/>
	</g>
	<g>
		<circle class="st1" cx="267.5" cy="136.6" r="1.4"/>
	</g>
	<g class="st5">
		<circle class="st1" cx="210.8" cy="100.2" r="1.5"/>
	</g>
	<g>
		<circle class="st1" cx="261.8" cy="224.1" r="1.3"/>
	</g>
	<g>
		<circle class="st1" cx="333.6" cy="194.2" r="2.1"/>
	</g>
	<g>
		<circle class="st1" cx="341.9" cy="76.3" r="2.1"/>
	</g>
	<g>
		<circle class="st1" cx="380.7" cy="218" r="1.9"/>
	</g>
	<g class="st3">
		<circle class="st1" cx="485.5" cy="131.9" r="1.2"/>
	</g>
	<g>
		<circle class="st1" cx="523.2" cy="50.4" r="0.9"/>
	</g>
	<g>
		<circle class="st1" cx="822.8" cy="56.2" r="2"/>
	</g>
	<g>
		<circle class="st1" cx="93.1" cy="4.1" r="1.3"/>
	</g>
	<g>
		<circle class="st1" cx="25.8" cy="128.1" r="1.2"/>
	</g>
	<g class="st6">
		<circle class="st1" cx="61.5" cy="65.3" r="1.8"/>
	</g>
	<g>
		<circle class="st1" cx="139.1" cy="208.2" r="1.3"/>
	</g>
	<g class="st4">
		<circle class="st1" cx="61.5" cy="209.2" r="0.6"/>
	</g>
	<g>
		<circle class="st1" cx="328.3" cy="232.4" r="1"/>
	</g>
	<g class="st3">
		<circle class="st1" cx="409" cy="85.8" r="1.1"/>
	</g>
	<g>
		<circle class="st1" cx="269.9" cy="64.8" r="1"/>
	</g>
	<g class="st5">
		<circle class="st1" cx="260.7" cy="94.8" r="1.6"/>
	</g>
	<g>
		<circle class="st1" cx="327" cy="164" r="1.4"/>
	</g>
	<g>
		<circle class="st1" cx="512.7" cy="174.7" r="1.1"/>
	</g>
	<g>
		<ellipse class="st1" cx="685.2" cy="29.1" rx="0.5" ry="1.4"/>
	</g>
	<g>
		<circle class="st1" cx="535.8" cy="25.7" r="1.9"/>
	</g>
	<g>
		<circle class="st1" cx="159.3" cy="199.9" r="1.5"/>
	</g>
	<g class="st4">
		<circle class="st1" cx="77.5" cy="251.2" r="1.1"/>
	</g>
	<g>
		<circle class="st1" cx="185.2" cy="185.1" r="1.4"/>
	</g>
	<g>
		<circle class="st1" cx="267.5" cy="170.6" r="1.1"/>
	</g>
	<g class="st2">
		<circle class="st1" cx="888.9" cy="134.1" r="1.7"/>
	</g>
	<g>
		<circle class="st1" cx="441.7" cy="8" r="0.9"/>
	</g>
	<g>
		<circle class="st1" cx="66.1" cy="34.9" r="0.4"/>
	</g>
	<g class="st5">
		<circle class="st1" cx="116.9" cy="130.8" r="0.9"/>
	</g>
	<g class="st7">
		<path class="st8" d="M317,152.6l113.7-52.7l-112.4,55.4c-0.7,0.4-1.6,0.1-2-0.7C315.9,153.9,316.2,153,317,152.6
			C317,152.6,317,152.6,317,152.6z"/>
	</g>
	<g>
		<path class="st1" d="M526.8,207.7l30.5-28.2l-28.4,30.4c-0.6,0.6-1.5,0.6-2.1,0.1C526.2,209.4,526.2,208.4,526.8,207.7
			C526.8,207.8,526.8,207.8,526.8,207.7z"/>
	</g>
	<g class="st9">
		<path class="st1" d="M825.6,146.2l75.6-35.3l-74.3,38c-0.7,0.4-1.6,0.1-2-0.7C824.5,147.5,824.8,146.6,825.6,146.2
			C825.5,146.2,825.5,146.2,825.6,146.2z"/>
	</g>
	<g class="st10">
		<path class="st1" d="M252.5,150.9l75.8-32.4l-74.6,35.1c-0.7,0.4-1.6,0-2-0.7C251.4,152.1,251.7,151.2,252.5,150.9
			C252.5,150.9,252.5,150.9,252.5,150.9z"/>
	</g>
</g>
<g id="skyline_back">
	<path class="st11" d="M2.2,414.5l23-7l14-12l7-12l9-12l9-5c0,0,9-9,9-12s6-6,0-9s-5-11-2-14s11-11,11-11l11-16v-17l9-5l10,7v15
		c10-10,22-22,22-22l7,22h11v-11v-47v-11l10,12v13l13,11l-10,16l10-3v9v11l6,13h14l4-13h10l6,12l4,8.5h17l9-20.5c0,0,9-8,12-10
		c3-2,16-14,16-14l11,8l14-4v9l6,11l5,10l11,18c0,0,9,5,12,5s20-7,20-7l10-5.5l9,15.5l25,1l9,16c0,0,10-3,11-6s0-10,0-10l15-7l21,6
		l11-2l23-6l-11-7.5l-4-10.5l-3-17l6-9l12-3v-11v-13l-7-10l7-10l3.9-13.9l3.1-11.1l11,28v12l10,4v-10l9,3v9v10l9,8v13l-6,11l-3,11
		l9,6l12,7l19-1l9,2l5-14l9-11l19-7l14-14l8-13l10-8l9,5l15,3l10-7c0,0,18-6,9-3s-3-13-3-13c13-8,18-12,18-12l9-10c0,0-3-2,0-9
		s17,0,17,0l9-18v-14v-18l16-21l9,21l-7,12l-1,10l13,2l10,2v10l6,11l-6,13l-4,21l15-1v11l27-12l9,5l-11,12l-5,9l2,8.5l14,10.5l-9,14
		l9,12l13,22l18-2l15-12l8-20l7-15l17,3l27-7v-13l15-12v-16l-6-15l13-18v-13l12-4v12v14l13,4l-9,8l-6,16l1,9l1,14l13-1l9,2v14
		l18-6.5h17l13-5.5v318H2.2V414.5z"/>
</g>
<g id="middle_skyline">
	<g>
		<path class="st13" d="M134.6,415.7l22.4-14.8l20.1-4.5v9.6h20.1l10-16.3h22.9l20.1,13l10,13l16.7-6.7l10.5,46.6
			c0,0-63.1,31.3-67.4,32.4s-80.3,0-80.3,0L134.6,415.7z"/>
		<path class="st13" d="M176.4,442.8c0.8-2.8-18.3-26.3-35.9-47c-12.9-15.2-24.9-29-27.8-32.2l-17.6,15.5l-22.7,9.3l-22.6,30.9
			c9.3,14.2,18.5,28.4,27.8,42.6C91.9,462.5,169.8,466.4,176.4,442.8z"/>
	</g>
	<polyline class="st13" points="754.3,336.5 758.3,403.1 965.7,397.1 973.1,355.5 937.6,343.2 920.6,325.8 868,305.6 868,305.6 
		847.3,295.6 809,319.4 787.6,328 771.8,319.4 754.3,336.5 	"/>
</g>
<g id="skyline_front" class="st14">
	<linearGradient id="SVGID_2_" gradientUnits="userSpaceOnUse" x1="511.6333" y1="368.5862" x2="511.6333" y2="667.2307">
		<stop  offset="0.2198" style="stop-color:#34006A"/>
		<stop  offset="0.2779" style="stop-color:#36086A"/>
		<stop  offset="0.4845" style="stop-color:#3C216A"/>
		<stop  offset="0.6105" style="stop-color:#3E2A6A"/>
		<stop  offset="0.7117" style="stop-color:#462D7B"/>
		<stop  offset="0.9046" style="stop-color:#5B36A5"/>
	</linearGradient>
	<path class="st15" d="M-9.9,365.5l16.1-5.9l5.1-10.9l6-11.7l7.7-5l10.2,4.2v12.6L42,358v7.5l9.4,10v10.9l-7.7,10l7.7,8.4l12.8,5.9
		l5.1,10l11.1,12.6H94l11.9,10.9h12.8h11.9c0.8,6.1,1.6,12.2,2.4,18.3c5.7,2,11.5,4,17.2,6c3.8,1.6,7.5,3.3,11.3,4.9
		c2.8,2,5.6,3.9,8.4,5.9c3.3-1.1,6.7-2.2,10-3.3c2.1-1.2,4.8-3,7.5-5.9c3-3.1,4.8-6.1,5.9-8.4c2.8-0.6,5.6-1.1,8.4-1.7
		c2.8,0,5.6,0,8.4,0c-0.3-4.5-0.6-8.9-0.8-13.4c2.5-3,5-6.1,7.5-9.1L233,430c3.8-3.7,7.6-7.3,11.4-11c1-3.6,1.9-7.8,2.5-12.6
		c0.6-5,0.7-9.5,0.5-13.3l14.5-5.9l10.2,5l7.7,7.5v9.6l-3.4,7.7h17.1v9.4l9.4,10.9l7.7,5.9l11.1,2.5c-2.6-4.8-5.2-9.6-7.8-14.3
		c0-4.8,0.1-9.5,0.1-14.3h7.7l9.4,3.6v9.2h10.2v17.6v11.7l11.9,5l15.4-8.4v-16.7l12.8-6.7l17.9-5l12.8-10.3l11.9-7.7l11.1-11.3
		c0,0,15.4,2.5,20.5,6.7c5.1,4.2,12.8,4.6,12.8,4.6l6.8,13l18.8,13.4l17.7-10l28.4,2.5c0,0,4.3,7.5,6,10c1.7,2.5,12.8,10,12.8,10
		l11.1-4.2l4.3-14.2v-12.8l-9.4-11.5l9.4-12.6l9.4-13.4l10.2-0.8v-11.7l15.4-5l23-18.4l13.6-5l11.9,8.4l13.6-15.1
		c2.3,3.6,4.5,7.2,6.8,10.8c-2.3,6.2-4.5,12.4-6.8,18.5l9.4,5.9l28.1-6.7l-5.1-11.7l-6-16.7l-2.6-12.8l13.6-10.6l16.2,5.9l9.4-5.9
		c2.7,2.8,5.4,5.5,8.1,8.3c2.1,3.1,4.2,6.2,6.3,9.3v8.4l-8.5,15.9l8.5,2.5l8.5,5l12.8,17.6l28.1,8.4l8.5,5.9l6,8l11.9,7.1l10.2-7.1
		l15.4,7.1l6-10.9l-5.1-16.7l5.1-10.9l7.7-6.7l18.8-5.9l11.1-3.3l7.7-1.7l8.5,5l7.7,11.7v9.2l9.4,5.9l12.8,0.8
		c10.2,8.4,17.9,16.3,17.9,16.3l29-8.8l14.5,8.8l10.2-11.3l10.2,5l9.4,0.8l1.9,214.9H-9.9V365.5z"/>
</g>
<g id="Layer_11" class="st14">
	<path class="st16" d="M-9.9,368.5l16.1-5.9l5.1-10.9l6-11.7l7.7-5l10.2,4.2v12.6L42,361v7.5l9.4,10v10.9l-7.7,10l7.7,8.4l12.8,5.9
		l5.1,10l11.1,12.6H94l11.9,10.9h12.8h11.9c0.8,6.1,1.6,12.2,2.4,18.3c5.7,2,11.5,4,17.2,6c3.8,1.6,7.5,3.3,11.3,4.9
		c2.8,2,5.6,3.9,8.4,5.9c3.3-1.1,6.7-2.2,10-3.3c2.1-1.2,4.8-3,7.5-5.9c3-3.1,4.8-6.1,5.9-8.4c2.8-0.6,5.6-1.1,8.4-1.7
		c2.8,0,5.6,0,8.4,0c-0.3-4.5-0.6-8.9-0.8-13.4c2.5-3,5-6.1,7.5-9.1L233,433c3.8-3.7,7.6-7.3,11.4-11c1-3.6,1.9-7.8,2.5-12.6
		c0.6-5,0.7-9.5,0.5-13.3l14.5-5.9l10.2,5l7.7,7.5v9.6l-3.4,7.7h17.1v9.4l9.4,10.9l7.7,5.9l11.1,2.5c-2.6-4.8-5.2-9.6-7.8-14.3
		c0-4.8,0.1-9.5,0.1-14.3h7.7l9.4,3.6v9.2h10.2v17.6v11.7l11.9,5l15.4-8.4v-16.7l12.8-6.7l17.9-5l12.8-10.3l11.9-7.7l11.1-11.3
		c0,0,15.4,2.5,20.5,6.7c5.1,4.2,12.8,4.6,12.8,4.6l6.8,13l18.8,13.4l17.7-10l28.4,2.5c0,0,4.3,7.5,6,10c1.7,2.5,12.8,10,12.8,10
		l11.1-4.2l4.3-14.2v-12.8l-9.4-11.5l9.4-12.6l9.4-13.4l10.2-0.8v-11.7l15.4-5l23-18.4l13.6-5l11.9,8.4l13.6-15.1
		c2.3,3.6,4.5,7.2,6.8,10.8c-2.3,6.2-4.5,12.4-6.8,18.5l9.4,5.9l28.1-6.7l-5.1-11.7l-6-16.7l-2.6-12.8l13.6-10.6l16.2,5.9l9.4-5.9
		c2.7,2.8,5.4,5.5,8.1,8.3c2.1,3.1,4.2,6.2,6.3,9.3v8.4l-8.5,15.9l8.5,2.5l8.5,5l12.8,17.6l28.1,8.4l8.5,5.9l6,8l11.9,7.1l10.2-7.1
		l15.4,7.1l6-10.9l-5.1-16.7l5.1-10.9l7.7-6.7l18.8-5.9l11.1-3.3l7.7-1.7l8.5,5l7.7,11.7v9.2l9.4,5.9l12.8,0.8
		c10.2,8.4,17.9,16.3,17.9,16.3l29-8.8l14.5,8.8l10.2-11.3l10.2,5l9.4,0.8l1.9,214.9H-9.9V368.5z"/>
</g>
<g id="Layer_12">
	<polygon class="st17" points="-15.1,336.4 1,330.2 12.1,306.2 19.7,300.9 30,305.3 30,318.6 36.8,328.4 36.8,336.4 46.2,347 
		46.2,358.6 38.5,369.2 59,384.3 64.1,394.9 75.2,408.2 88.8,408.2 100.8,419.8 113.5,419.8 127.9,439.1 145.1,445.5 164.8,456.9 
		182.3,447.1 204.9,436.5 204.1,422.3 211.6,412.7 227.8,404.7 241.8,379.7 242.3,365.6 256.8,359.4 267,364.8 274.7,382.9 
		288.4,391.2 288.4,401.1 297.7,412.7 316.5,421.5 308.8,406.3 316.5,391.2 325.9,404.7 336.1,404.7 336.1,435.7 348.1,441 
		363.4,432.2 363.4,414.4 394.1,402 418.8,382.9 429.9,371 450.4,378.1 463.2,382.9 470,396.7 488.8,410.9 506.4,400.2 534.8,402.9 
		540.8,413.5 553.6,424.2 564.7,419.8 568.9,404.7 568.9,391.2 559.5,379 578.3,351.5 588.5,350.6 588.5,338.2 603.9,332.8 
		617.5,321.3 640.6,308 652.5,316.9 663,311.6 666.1,300.9 672.9,312.3 666.1,331.9 675.5,338.2 703.7,331.1 692.6,300.9 
		703.7,276.1 719.9,282.3 743.7,294.7 735.2,320.4 743.7,323.1 765.1,347 783.6,347.7 801.7,362.1 819.6,378.1 829.9,370.5 
		845.2,378.1 851.2,366.5 846.1,348.8 851.2,337.3 888.7,320.4 912.6,336.4 912.6,346.1 934.8,353.2 952.7,370.5 962.9,367.3 
		979,354.2 996.2,370.5 1006.4,358.6 1026,364.8 1028,592.5 -15.1,592.5 	"/>
</g>
<g id="Layer_10" class="st14">
	<linearGradient id="SVGID_3_" gradientUnits="userSpaceOnUse" x1="763.1349" y1="-223.9497" x2="765.0995" y2="135.5705">
		<stop  offset="0.2198" style="stop-color:#2F1D49"/>
		<stop  offset="0.3524" style="stop-color:#301E4C"/>
		<stop  offset="0.4561" style="stop-color:#352256"/>
		<stop  offset="0.5497" style="stop-color:#3C2966"/>
		<stop  offset="0.5652" style="stop-color:#3E2A6A"/>
		<stop  offset="0.6975" style="stop-color:#462D7B"/>
		<stop  offset="0.9496" style="stop-color:#5B36A5"/>
	</linearGradient>
	<polygon class="st18" points="178.5,-152.5 209.4,-152.5 224.9,-162.3 240.4,-180 240.4,-195.3 247,-217.6 264.8,-225.3 
		283.7,-227.8 283.7,-206.5 299.1,-195.3 301.8,-175.6 316.6,-163.3 349.8,-152.5 376.4,-158.4 376.4,-181.5 408.6,-182.2 
		436.4,-192.5 476.4,-190.2 479.1,-176 505.6,-180 498.7,-193.8 489.3,-212.9 512.2,-212.6 532.5,-201.3 537.6,-190.2 570.5,-158.4 
		608.4,-145.6 648.1,-153.5 682.4,-168.6 724.4,-168.6 755.2,-180 767.5,-197.9 749.6,-223.3 774.1,-223.3 780.1,-200 796.2,-196.6 
		803.1,-168.6 855.9,-164.3 862.8,-180 888.6,-171.3 917.9,-170 925.5,-182.3 948.8,-182.3 972.1,-191 977.2,-168.6 1009,-168.6 
		994.3,-194.9 1015.8,-207.5 1042.7,-217.6 1024.8,-242.2 1035,-257.6 1059.3,-261.1 1047.5,-242.1 1075.8,-228.2 1091.5,-200 
		1126.7,-197.9 1132.2,-158.4 1190.5,-149.5 1187.8,-180 1227.2,-180 1231.4,-196.6 1249.3,-197.4 1260.3,-213.9 1294.3,-200.9 
		1306.4,-168.6 1332.2,-168.6 1349,-162.3 1339.1,32.1 179,32.1 	"/>
</g>
<g id="moon">
	<g class="st19">
		
			<image style="overflow:visible;opacity:0.8;" width="323" height="322" xlink:href="A010FCB3D7428430.png"  transform="matrix(1 0 0 1 457 -31)">
		</image>
		<g>
			<linearGradient id="SVGID_4_" gradientUnits="userSpaceOnUse" x1="618.5433" y1="80.1641" x2="618.5433" y2="179.5128">
				<stop  offset="0" style="stop-color:#FFFFFF"/>
				<stop  offset="0.594" style="stop-color:#FEFEFE;stop-opacity:0.96"/>
				<stop  offset="0.775" style="stop-color:#F9F9F9;stop-opacity:0.3945"/>
				<stop  offset="0.9012" style="stop-color:#F2F2F2;stop-opacity:0"/>
			</linearGradient>
			<path class="st20" d="M668.2,129.8c0,1.4,0,4-0.5,7.3c-3.3,18.9-21.8,42.4-49.1,42.4c-26.4,0-49.7-21.9-49.7-49.7
				c0-27.4,22.2-49.7,49.7-49.7C646,80.2,668.2,102.4,668.2,129.8z"/>
		</g>
	</g>
</g>
<g id="shades_moon" class="st14">
</g>
<g id="moon_clipping_mask">
	<g class="st21">
		<defs>
			<path id="SVGID_5_" class="st21" d="M668.2,129.8c0,1.4,0,4-0.5,7.3c-3.3,18.9-21.8,42.4-49.1,42.4c-26.4,0-49.7-21.9-49.7-49.7
				c0-27.4,22.2-49.7,49.7-49.7C646,80.2,668.2,102.4,668.2,129.8z"/>
		</defs>
		<clipPath id="SVGID_6_">
			<use xlink:href="#SVGID_5_"  style="overflow:visible;"/>
		</clipPath>
		<path class="st22" d="M650.1,100.6c-0.5,0.5-1,0.9-1,1.4c0,0.4,0.4,0.6,1,1.2c0.6,0.6,0.5,0.7,1.5,2.1c1.1,1.4,1.4,1.6,1.3,2
			c-0.2,0.6-1.4,1-2.2,1c-0.6,0-0.8-0.1-2.3-0.6c-2.2-0.7-2.4-0.6-2.6-0.5c-0.6,0.4-0.4,2.1,0.5,3.2c0.8,1,2,1.1,2.6,1.2
			c2.5,0.4,5.8-0.8,6.9-3.4c0.5-1.2,0.4-2.3,0.4-3.2c-0.1-1.7-0.7-2.9-1.5-4.4c-0.9-1.8-1.4-2.8-2.1-2.8
			C651.9,97.7,652,98.8,650.1,100.6z"/>
		<path class="st22" d="M666.5,136.7c-1.3-0.2-2.9,0.1-3.1,0.7c-0.1,0.5,1,0.8,1.5,2.1c0.3,0.6,0.5,1.8,0,2.4
			c-0.4,0.5-0.9,0.2-2.1,0.4c-0.2,0-2.6,0.6-2.8,1.8c-0.1,1,1.4,2,1.8,2.2c0.3,0.2,1.8,1.1,3.3,0.8c3.5-0.7,5.4-7.7,3.3-9.6
			C668,136.9,666.9,136.8,666.5,136.7z"/>
		<path class="st23" d="M623.2,156.2c-0.4-0.2-1.1,0.2-1.3,0.7c-0.3,0.8,0.8,1.7,1.3,1.5C623.7,158.3,623.8,156.5,623.2,156.2z"/>
		<path class="st24" d="M620.8,159c-0.4,0.3-0.5,0.8-0.4,1.3c0.1,0.7,0.9,1.4,1.7,1.3c0.8-0.2,1.2-1.1,1-1.8
			C622.7,158.8,621.4,158.5,620.8,159z"/>
		<path class="st22" d="M576.4,119.6c1.5-1.2,2.2-1.8,2.4-2.5c0.4-1.4-1.1-2-1-3.8c0.1-1.6,1.5-3.2,2.4-3.1c0,0,0.4,0.1,1.8,2.5l0,0
			c2-0.9,3.1-0.8,3.1-0.8c0.9,0,1.9,0.4,2,0.8c0,0.3-0.7,0.6-2.2,1.3c-2.2,1-3.4,1.5-3.3,2c0,0.7,1.8,1.6,3.2,1.1
			c1.5-0.5,1.7-2.2,2.5-2.1c0.7,0.1,1.3,1.5,1.1,2.7c-0.2,1.6-1.9,2.9-3.3,2.8c-1.2-0.1-1.4-1.1-2.5-1.1c-0.9,0-1.4,0.6-4,2.8
			c-1.8,1.4-2.3,1.7-2.8,1.5c-0.8-0.2-1.4-1.3-1.3-2.1C574.5,120.9,575.1,120.7,576.4,119.6z"/>
		<path class="st22" d="M591.2,114.9c-0.1,0.7-0.2,1.4,0.1,1.7c0.5,0.3,1.6-0.7,2-1c0.7-0.7,1.9-1.7,1.5-2.7c-0.3-0.8-1.4-1.2-2.2-1
			C591.6,112.3,591.4,113.7,591.2,114.9z"/>
		<path class="st22" d="M588.8,108.9c-0.9,0-1.9-1.6-1.4-2.4c0.4-0.7,2.2-0.7,2.7,0.1C590.5,107.5,589.7,108.9,588.8,108.9z"/>
		<path class="st22" d="M601.7,82.3c-0.3,0.3-1.3,1.3-1.1,2.5c0.2,1.5,2.2,2.4,3.8,2.5c2.1,0.1,4.1-1.3,3.9-2
			c-0.2-0.8-3.8-0.2-4-1.1c-0.3-1,3.9-2.5,3.6-3.2C607.6,80.4,603.8,80.1,601.7,82.3z"/>
		<path class="st22" d="M634.6,81c2.5,3,3.4,4.8,3.9,4.6c0.8-0.2-0.7-3.8,1.1-6.3c0.9-1.2,2.7-2.2,3.6-1.7c0.8,0.5,1,1.9,0.7,3.1
			c-0.6,1.9-2.6,2.1-2.7,3.6c-0.1,1.1,0.9,1.3,1,2.5c0,1.5-1.6,3.1-3.3,3.6c-2.5,0.7-5.5-0.9-5.7-2.5c-0.1-1.2,1.5-1.8,1.3-2.8
			c-0.4-1.7-5-0.9-5.9-2.9c-0.6-1.5,1-4.1,2.5-4.2C631.5,78,632.2,78.1,634.6,81z"/>
		<path class="st22" d="M633.8,113.5c0.1,0.1,0.3,0.1,0.4,0.2c0.7,0.4,5,3,5.9,6.8c0.6,2.8-1,4.2-0.3,4.9c1.6,1.5,10.5-4.1,9.8-7.4
			c-0.5-2.4-5.4-1.7-10.5-6.6c-1.2-1.2-2.2-2.2-3.2-3.8c-1.6-2.7-1.4-4.4-2.6-4.8c-1.5-0.5-4.1,1.4-4.4,3.4c-0.3,2.4,2.7,3.2,3,6.5
			c0.2,2.7-1.6,4.2-0.9,5.3c0.4,0.6,1.5,1,4.7,0.1"/>
		<path class="st22" d="M646.9,143.5c0.9-0.6,2.8-0.1,3.1,0.8c0.2,0.5-0.2,0.7-1,2.4c-0.7,1.5-0.6,1.7-1,2.1c-1.1,1-3.4,0.7-3.6,0
			c-0.2-0.5,0.7-0.7,1.4-2.1C646.7,145.1,646.2,144.1,646.9,143.5z"/>
		<path class="st22" d="M650.5,139.8c1.2,0.2,1.3,1.9,2.3,2c0.9,0,2-1.5,1.8-2.6c-0.2-1.1-1.6-1.3-1.5-2.1c0.1-0.8,1.6-0.9,1.7-1.6
			c0.1-0.7-1.5-1.9-3.1-1.8c-2.3,0-4.2,2.6-4.5,4.8c-0.1,0.8,0,2.1,0.6,2.3C648.6,141.1,649.3,139.7,650.5,139.8z"/>
		<path class="st25" d="M585.5,149.1c1.2-0.8,3.3-2.2,3.1-3.5c-0.2-0.9-1.6-1.6-2.8-1.5c-1,0.1-1.6,0.6-2.4,1.3
			c-0.8,0.7-3,2.6-2.7,4.6c0.2,1.3,1.3,1.3,1.7,2.8c0.3,1.3,0,2.9-0.8,3.2c-1.1,0.4-3.6-1.9-3.2-3.3
			C578.7,151.2,581.6,151.7,585.5,149.1z"/>
		<path class="st26" d="M586.5,155.1c0,1.5,0.8,3.7,2.5,3.9c1.8,0.2,3.4-1.9,3.2-3.2c-0.2-1-1.3-1.2-1.8-2.7
			c-0.4-1.3,0.2-2.2-0.1-2.4C589.6,150.4,586.6,152.4,586.5,155.1z"/>
		<path class="st22" d="M594.1,148c-0.6,0.3-0.6,2.1,0.1,2.4c0.6,0.2,1.6-0.4,1.7-1.1C596,148.4,594.7,147.7,594.1,148z"/>
		<path class="st22" d="M654.4,157.4c1.3,1.2,1.5,1.7,1.4,1.8c-0.1,0.2-0.8-0.1-1.2,0.3c-0.2,0.2-0.1,0.3-0.3,0.4
			c-0.4,0.2-1.3-0.3-1.3-0.7c0-0.4,0.8-0.9,4.3-1.5"/>
		<path class="st22" d="M606.4,132c-0.5,1.3-2.1,1.6-2,2.5c0.1,0.7,1.3,1.4,2.4,1.2c2.2-0.3,2.3-3.9,4.3-4.1
			c1.3-0.1,2.6,1.2,3.1,2.4c1,2.5-1.3,5-1.6,5.3c-2.3,2.6-6.8,3.5-9.9,1.6c-1.8-1.1-3.1-3.1-3.5-5c-0.5-2.5,0.8-3.7-0.1-5.6
			c-1-2-3.1-2.2-3-3.3c0.1-1.1,2.1-2,3.8-2.1C603.7,125,607.2,129.7,606.4,132z"/>
		<path class="st22" d="M628.3,144.2c-1.5,0.5-3.3,1.6-3.2,2.4c0.1,0.7,1.5,1,2.6,0.9c2.3-0.2,4.3-2.6,3.9-3.3
			C631.4,143.6,629.4,143.9,628.3,144.2z"/>
		<path class="st22" d="M605.8,122.3c-0.4,0.5,0.1,1.7,0.9,2.2c1.4,0.9,3.4-0.4,3.3-1.1C610.1,122.5,606.5,121.4,605.8,122.3z"/>
		<path class="st27" d="M613,160.3c-1.4-0.6-3.6-0.9-4-0.2c-0.3,0.6,0.5,1.8,1.4,2.4c1.9,1.4,4.9,0.8,5.1-0.1
			C615.8,161.7,614,160.7,613,160.3z"/>
	</g>
</g>
</svg>
