<?xml version="1.0" encoding="utf-8"?>
<!-- Generator: Adobe Illustrator 24.1.0, SVG Export Plug-In . SVG Version: 6.00 Build 0)  -->
<svg version="1.1" id="Layer_1" xmlns="http://www.w3.org/2000/svg" xmlns:xlink="http://www.w3.org/1999/xlink" x="0px" y="0px"
	 viewBox="0 0 100 100" style="enable-background:new 0 0 100 100;" xml:space="preserve">
<style type="text/css">
	.st0{fill:#A3A3A3;}
</style>
<g>
	<path class="st0" d="M3,36c1.3-5.1,3.6-9.9,6.5-14.3c3-4.4,6.7-8.2,11-11.4c4.2-3.2,9-5.7,14-7.5C39.6,1,44.9,0.1,50.2,0
		C55.6,0,60.9,0.7,66,2.4c5.1,1.7,9.8,4.2,14,7.5c4.2,3.3,7.8,7.2,10.7,11.7c2.8,4.5,5,9.3,6.3,14.4c-3.3-9.9-9.6-18.7-17.9-24.8
		C70.8,5,60.5,1.8,50.2,2C40,2.1,29.8,5.5,21.4,11.5C13,17.5,6.4,26.1,3,36z">

		<animateTransform attributeName="transform"
				attributeType="XML"
				type="rotate"
				from="0 50 50"
				to="360 50 50"
				dur="2s"
				repeatCount="indefinite" />

	</path>

</g>

<path class="st0" d="M70.6,39.8c-0.8-0.4-1.6-0.9-2.3-1.3l0-0.2c-0.6-2.9-1.1-5.7-3.2-7.8c-1.5-1.5-3.3-1.7-5.2-1.2
	c-0.6-0.7-1.2-1.4-1.7-2c-1.6-2.1-3.2-4.2-6.3-4.2c-2.1-0.1-4.1,0.6-5.6,2c-0.7,0.6-1.4,1-2.2,1.4c-2-0.9-3.9-1.3-5.9-0.7
	c-6.8,2.3-9.4,9.3-8.5,15.3c-3.2,2.1-6.4,4.4-6.4,8.9c0,4.3,2,6.6,4.2,9c0.3,0.4,0.6,0.7,1,1.1c-0.7,2.4-0.6,4.7,1.4,6.7
	c2.5,2.5,4.7,3.2,7.2,3.2c0.1,0,0.2,0,0.2,0c0.3,0.3,0.5,0.5,0.8,0.8c2.9,2.9,6.1,6.1,9.4,6.1c1.7,0,3.4-0.7,4.6-2.1
	c0.2,0,0.5,0,0.7,0c6.1,0,11.6-2,15.1-5.4c2.2-2.2,2.3-6.1,2-9.1c2.6-2.5,4.6-5.6,4.6-9.4c1.4-1.6,2.7-3.5,2.7-5.4
	C76.9,43.2,73.8,41.5,70.6,39.8z M63.7,31.8c1.7,1.7,2.2,4.1,2.7,6.9c0,0.2,0.1,0.4,0.1,0.5c0,0,0,0,0,0c0,0.2,0.1,0.4,0.1,0.6
	c0,0.1,0,0.2,0.1,0.3c0.1,0.4,0.2,0.8,0.3,1.2c0,0.1,0.1,0.3,0.1,0.4c0.1,0.4,0.2,0.9,0.4,1.3c0,0.1,0.1,0.2,0.1,0.3
	c0.1,0.4,0.3,0.9,0.5,1.3c0,0,0,0.1,0,0.1c-1.9-0.6-3.9-1.2-5.9-1.6c-0.4-0.1-0.9-0.2-1.3-0.3l-0.4-0.1c-0.2,0-0.4-0.1-0.6-0.1
	c-0.1-0.2-0.2-0.5-0.3-0.7c0,0,0-0.1-0.1-0.1c-0.1-0.2-0.2-0.3-0.3-0.5c-0.1-0.1-0.1-0.2-0.2-0.2c-0.1-0.1-0.3-0.3-0.4-0.4
	c-0.1-0.1-0.1-0.1-0.2-0.2c-0.2-0.1-0.3-0.2-0.5-0.3c-0.1,0-0.1-0.1-0.2-0.1c-0.2-0.1-0.4-0.2-0.6-0.3c-0.1,0-0.2-0.1-0.2-0.1
	c-0.2-0.1-0.3-0.1-0.5-0.2c-0.2,0-0.3-0.1-0.5-0.1c-0.1,0-0.2-0.1-0.4-0.1c-0.2,0-0.3-0.1-0.5-0.1l0,0c-0.2,0-0.4-0.1-0.7-0.1l0,0
	c-0.1-0.4-0.3-0.7-0.5-1.1c0-0.1,0-0.1-0.1-0.2c-0.2-0.4-0.4-0.8-0.6-1.1c0-0.1-0.1-0.1-0.1-0.2c-0.2-0.4-0.5-0.8-0.8-1.2
	c0,0-0.1-0.1-0.1-0.1c-0.3-0.4-0.6-0.8-1-1.1c0,0,0,0,0,0c0.4-0.1,0.8-0.2,1.1-0.3c0.1,0,0.2,0,0.2-0.1c1.5-0.4,2.8-1,4-1.4
	C60.2,30.9,62.1,30.2,63.7,31.8z M60.7,48.6L60.7,48.6c0.2,0.2,0.3,0.3,0.4,0.5l0.1,0.2c0.1,0.1,0.2,0.3,0.3,0.4
	c0,0.1,0.1,0.1,0.1,0.2c0.1,0.2,0.3,0.4,0.4,0.6c0,0,0,0.1,0.1,0.1c0.1,0.2,0.2,0.4,0.3,0.5c0,0.1,0.1,0.1,0.1,0.2
	c0.1,0.2,0.1,0.4,0.2,0.5c0,0.1,0,0.1,0.1,0.2c0.1,0.2,0.1,0.5,0.2,0.7c0,0.1,0,0.1,0,0.2c0,0.2,0,0.4,0,0.6v0.2c0,0.2,0,0.5,0,0.7
	c0,0,0,0.1,0,0.1c0,0.3-0.1,0.6-0.2,0.9c0,0.1,0,0.2-0.1,0.2c-0.1,0.2-0.2,0.5-0.2,0.7c0,0.1-0.1,0.2-0.1,0.3
	c-0.1,0.3-0.3,0.7-0.5,1c-0.2,0.3-0.3,0.5-0.5,0.8c-0.1,0.1-0.1,0.2-0.2,0.2c-0.1,0.1-0.2,0.3-0.3,0.4c-0.1,0.1-0.1,0.2-0.2,0.2
	c-0.1,0.1-0.2,0.2-0.3,0.3c-0.1,0.1-0.2,0.2-0.2,0.2c-0.1,0.1-0.2,0.2-0.3,0.3c-0.1,0.1-0.2,0.1-0.3,0.2c-0.1,0.1-0.2,0.1-0.3,0.2
	c-0.1,0.1-0.2,0.1-0.3,0.2c-0.1,0.1-0.2,0.1-0.4,0.2c-0.1,0-0.2,0.1-0.3,0.1c-0.1,0.1-0.3,0.1-0.4,0.2c-0.1,0-0.2,0.1-0.4,0.1
	c-0.1,0-0.3,0.1-0.4,0.1c-0.1,0-0.2,0-0.3,0.1c-0.1,0-0.2,0-0.3,0.1c-0.1,0-0.2,0-0.3,0c-0.1,0-0.2,0-0.3,0c-0.1,0-0.2,0-0.3,0
	c-0.1,0-0.2,0-0.3,0s-0.2,0-0.3,0c-0.1,0-0.2,0-0.3,0c-0.1,0-0.2,0-0.3,0c-0.1,0-0.2,0-0.3,0c-0.1,0-0.2,0-0.3,0
	c-0.1,0-0.2,0-0.3-0.1c-0.1,0-0.2,0-0.3-0.1l0,0c2.2-0.4,4.8-1.7,7.1-5.5c1.3-2.3,1.5-5.1,0.6-7.6C60.4,48.3,60.5,48.5,60.7,48.6
	L60.7,48.6z M60,66c-0.2,0.3-0.4,0.6-0.7,1l0,0.1c-0.2,0.3-0.5,0.6-0.8,1l-0.1,0.1c-0.3,0.3-0.6,0.6-0.9,1c-0.2,0.2-0.3,0.3-0.5,0.4
	c0,0-0.1,0.1-0.1,0.1c-0.1,0.1-0.3,0.2-0.5,0.3c0,0,0,0-0.1,0C56.1,70,56,70,55.8,70.1c-0.1,0-0.1,0-0.2,0c-0.1,0-0.2,0-0.3,0.1
	c-0.1,0-0.2,0-0.4,0h0c-0.3,0-0.7,0-1-0.1c-1-0.2-2-0.6-2.9-1.1c-1.6-1-3.1-2-4.6-3.2l-0.3-0.2c1.8-0.5,3.5-1.5,4.8-2.8
	c0.1,0,0.2,0.1,0.4,0.1l0.1,0c0.3,0.1,0.7,0.2,1,0.2l0.2,0c0.3,0.1,0.7,0.1,1,0.2c0.1,0,0.2,0,0.2,0c0.3,0,0.7,0.1,1,0.1
	c0.1,0,0.1,0,0.2,0c2.3,0.1,4.6-0.8,6.3-2.4c0,0.1,0,0.2,0,0.4v0.1c0,0.2,0,0.4,0,0.6c0,0.1,0,0.1,0,0.2c0,0.1,0,0.3-0.1,0.4
	c0,0.2-0.1,0.3-0.1,0.5c0,0.1,0,0.2-0.1,0.3c-0.1,0.2-0.1,0.4-0.2,0.6c0,0.1,0,0.1-0.1,0.2c-0.1,0.2-0.2,0.5-0.3,0.7l0,0
	C60.4,65.4,60.2,65.7,60,66L60,66z M41.1,64.3c-0.2,0-0.3,0-0.5-0.1c-0.2,0-0.3,0-0.5-0.1c-0.3-0.1-0.5-0.1-0.8-0.2
	c-0.1,0-0.1-0.1-0.2-0.1c-0.2-0.1-0.3-0.2-0.5-0.2c-0.1,0-0.1-0.1-0.2-0.1c-0.1-0.1-0.3-0.2-0.4-0.3c-0.1-0.1-0.1-0.1-0.2-0.2
	c-0.1-0.1-0.2-0.3-0.3-0.4c0-0.1-0.1-0.1-0.1-0.2c-0.1-0.2-0.2-0.4-0.3-0.7c-0.1-0.2-0.1-0.4-0.1-0.7c0-0.1,0-0.1,0-0.2
	c0-0.2,0-0.3,0-0.5c0-0.1,0-0.2,0-0.2c0-0.2,0-0.3,0.1-0.5c0-0.1,0-0.1,0-0.2c0-0.2,0.1-0.5,0.1-0.7c0-0.1,0-0.1,0-0.2
	c0-0.2,0.1-0.4,0.2-0.5c0-0.1,0.1-0.2,0.1-0.2c0.1-0.2,0.1-0.3,0.2-0.4c0-0.1,0.1-0.1,0.1-0.2c0.1-0.2,0.2-0.4,0.2-0.5
	c0,0,0-0.1,0-0.1c0.1-0.2,0.2-0.4,0.3-0.5c0,0,0,0,0-0.1c0,0,0,0,0,0.1c0.1,0.2,0.1,0.3,0.2,0.5c0,0,0.1,0.1,0.1,0.1
	c0.1,0.2,0.2,0.4,0.4,0.5c1.3,1.7,4,2.6,7.3,2.6c0.4,0,0.9,0,1.3-0.1c1.2-0.1,2.4-0.6,3.5-1.2l0,0c-0.2,0.6-0.4,1.1-0.7,1.6
	c0,0,0,0,0,0c-0.2,0.3-0.4,0.6-0.6,0.9c0,0,0,0,0,0c-0.2,0.2-0.3,0.4-0.5,0.6c0,0,0,0,0,0c-0.2,0.2-0.3,0.3-0.5,0.5l-0.1,0.1
	c-1.4,1.1-3.1,1.7-4.8,1.9c-0.4,0.1-0.8,0.1-1.2,0.1c-0.1,0-0.2,0-0.4,0c-0.2,0-0.4,0-0.6,0C41.4,64.3,41.3,64.3,41.1,64.3z
	 M45.6,33.1c0.1,0,0.2,0,0.2,0c0.3,0.1,0.6,0.1,1,0.2l0.1,0c0.7,0.2,1.4,0.6,1.9,1c1.6,1.2,2.8,2.9,3.5,4.7c-1.3,0-2.6,0-3.9,0.2
	l0,0c-0.1-0.1-0.2-0.1-0.3-0.2l0,0c-0.1-0.1-0.2-0.1-0.4-0.2l0,0c-0.1-0.1-0.3-0.2-0.4-0.2l-0.1,0c-0.2-0.1-0.3-0.2-0.5-0.2l-0.1,0
	c-0.2-0.1-0.4-0.2-0.5-0.2l-0.1,0c-0.2-0.1-0.4-0.2-0.6-0.2l-0.1,0c-0.2-0.1-0.4-0.2-0.6-0.2l0,0c-0.2-0.1-0.4-0.1-0.7-0.2l-0.1,0
	c-0.2-0.1-0.5-0.1-0.7-0.1l-0.1,0c-0.2,0-0.5-0.1-0.7-0.1l-0.1,0c-0.2,0-0.5,0-0.7,0h0c-0.2,0-0.5,0-0.7,0.1l-0.1,0
	c-0.2,0-0.5,0.1-0.7,0.2c0,0-0.1,0-0.1,0c-0.2,0.1-0.5,0.2-0.7,0.3c0,0-0.1,0-0.1,0.1c-0.2,0.1-0.4,0.3-0.7,0.4c0,0-0.1,0-0.1,0.1
	c-0.2,0.2-0.5,0.4-0.7,0.6c-0.3,0.3-0.5,0.6-0.8,0.9c-0.1,0.1-0.1,0.2-0.2,0.3c-0.2,0.2-0.3,0.5-0.5,0.7c0,0.1-0.1,0.2-0.1,0.2
	c-0.2,0.3-0.4,0.7-0.5,1.1c-0.6-0.7-1.2-1.5-1.5-2.3c0,0,0-0.1,0-0.1c0-0.1-0.1-0.3-0.1-0.4c0,0,0-0.1,0-0.1c0-0.2,0-0.3,0-0.5
	c0-2.2,3.3-5.4,10.8-5.4C45,33,45.3,33,45.6,33.1z M58.2,43.2c0,0.1,0,0.2,0.1,0.3v0c0,0,0,0,0,0c0,0.5,0,1-0.2,1.4c0,0,0,0,0,0.1
	c0,0.2-0.1,0.3-0.2,0.5c-0.5,1.1-1.1,2.2-1.9,3.1c0-0.8-0.1-1.7-0.4-2.5c0,0,0,0,0-0.1c0-0.1,0-0.1-0.1-0.2
	c-0.8-2.1-2.3-3.9-4.2-5.1c0.3,0,0.6,0,0.9,0l0.3,0l0.2,0c0.3,0,0.6,0,0.9,0.1C55.5,41.1,57.7,41.7,58.2,43.2
	C58.2,43.2,58.2,43.2,58.2,43.2z M58.2,54.9c-1.8,2.9-3.6,4.1-5.4,4.6c0.4-1,0.6-2.1,0.7-3.1c0.9-1.2,1.5-2.7,1.8-4.2
	c1.1-1.2,2.2-2.5,3.1-3.9C59.1,50.1,59.5,52.7,58.2,54.9z M50.9,56.6c0,0-0.1,0.1-0.1,0.1c-0.2,0.1-0.3,0.2-0.5,0.4
	c-0.1,0-0.2,0.1-0.2,0.1c-0.1,0.1-0.2,0.1-0.3,0.2c-0.1,0-0.2,0.1-0.3,0.1c-0.2,0.1-0.4,0.2-0.6,0.2c-0.1,0-0.2,0.1-0.3,0.1
	c-0.1,0-0.3,0.1-0.4,0.1c-0.1,0-0.2,0-0.3,0.1c-0.2,0-0.3,0.1-0.5,0.1c-0.1,0-0.2,0-0.3,0c-0.3,0-0.5,0-0.8,0c-2.8,0-5-0.7-5.9-1.9
	c-0.1-0.2-0.2-0.3-0.3-0.5c0-0.1,0-0.1-0.1-0.2c0-0.1-0.1-0.2-0.1-0.3c1.7,0.8,3.6,1.2,5.5,1.1c2.6-0.1,5.2-0.9,7.4-2.3
	c-0.3,0.6-0.6,1.1-1,1.6c0,0,0,0,0,0c-0.2,0.2-0.3,0.4-0.5,0.6l0,0C51.3,56.3,51.1,56.4,50.9,56.6L50.9,56.6z M36.8,44.7
	c0-0.3,0-0.6,0.1-0.9c0.1-0.4,0.1-0.7,0.3-1c0,0,0-0.1,0-0.1c0.2-0.7,0.6-1.3,1-1.8c0-0.1,0.1-0.1,0.1-0.2c0.2-0.3,0.4-0.5,0.7-0.8
	c0.2-0.2,0.4-0.4,0.6-0.5c0.1,0,0.1-0.1,0.2-0.1c0.1-0.1,0.3-0.2,0.5-0.2c0.1,0,0.2-0.1,0.3-0.1c0.1,0,0.3-0.1,0.4-0.1
	c0.1,0,0.2,0,0.3,0c0.2,0,0.3,0,0.5,0h0.3c0.1,0,0.3,0,0.4,0c0.1,0,0.2,0,0.3,0c0.1,0,0.3,0,0.4,0.1c0.1,0,0.2,0,0.3,0.1
	c0.1,0,0.3,0.1,0.4,0.1c0.1,0,0.2,0.1,0.3,0.1c0.2,0.1,0.3,0.1,0.4,0.2l0.1,0.1c-1.6,0.3-3.2,1.1-4.3,2.3c-1.8,1.8-2.7,4.5-2.6,8
	C37.2,48.2,36.8,46.5,36.8,44.7z M49.7,53.6c-2.3-0.1-3.9-0.7-4.8-1.8c0.8-2.9,3.9-4.5,8.8-4.5c0.2,0,0.3,0,0.5,0
	c0.3,1.3,0.2,2.7-0.3,3.9C52.5,52.2,51.1,52.9,49.7,53.6L49.7,53.6z M43.8,49.6c-0.1-0.5-0.1-0.9-0.1-1.4c0-0.5-0.4-0.9-0.9-0.9
	c-0.5,0-0.9,0.4-0.9,0.9c0,3.1,1.2,5.2,3.7,6.3c0,0,0,0-0.1,0c-1.9,0.1-3.8-0.4-5.4-1.4c-0.8-4.7-0.2-8.2,1.7-10.1
	c2.2-2.2,5.5-2,6.1-1.9c2.6,1.2,4.5,2.7,5.4,4.5C47.7,45.6,45.1,47.6,43.8,49.6L43.8,49.6z M47.3,26.6c1.2-1.1,2.9-1.7,4.5-1.6
	c2.2,0,3.3,1.5,4.8,3.5c0.4,0.5,0.8,1,1.2,1.5l-0.1,0c-0.5,0.2-1.1,0.4-1.6,0.6c-0.1,0-0.1,0.1-0.2,0.1c-0.3,0.1-0.7,0.3-1.1,0.4
	c-0.2,0-0.4-0.1-0.5-0.1c-0.2,0-0.4-0.1-0.5-0.1c-0.2,0-0.4-0.1-0.6-0.2c-0.2,0-0.3-0.1-0.5-0.1c-0.2-0.1-0.4-0.1-0.7-0.2
	c-0.1,0-0.3-0.1-0.4-0.1c-0.3-0.1-0.5-0.2-0.8-0.3c-0.1,0-0.2-0.1-0.2-0.1c-1.4-0.6-2.7-1.2-3.8-1.9l-0.8-0.4
	C46.4,27.2,46.9,26.9,47.3,26.6z M38.6,27.6c0.4-0.1,0.9-0.2,1.4-0.2c1.2,0.1,2.5,0.4,3.6,1c0,0,0,0,0,0c0.7,0.3,1.5,0.7,2.3,1.2
	c0.8,0.4,1.7,0.9,2.7,1.3l0.1,0.1c0.5,0.2,0.9,0.4,1.4,0.6c0.1,0,0.1,0,0.2,0.1c0.4,0.2,0.8,0.3,1.3,0.5c0.1,0,0.1,0,0.2,0.1
	c-0.1,0-0.3,0.1-0.4,0.1c-0.1,0-0.2,0.1-0.3,0.1c-0.5,0.1-0.9,0.2-1.4,0.3c-0.7-0.5-1.4-0.8-2.2-1c-0.1,0-0.1,0-0.2-0.1
	c-0.3-0.1-0.6-0.2-1-0.2c-0.1,0-0.2,0-0.3,0c-0.4-0.1-0.8-0.1-1.2-0.1c-8.1,0-12.5,3.7-12.5,7.2c0,0.2,0,0.4,0.1,0.7
	c0,0.1,0,0.2,0,0.3c0,0,0,0.1,0,0.1c-0.2,0.1-0.4,0.3-0.6,0.4c-0.1,0.1-0.2,0.1-0.3,0.2L31.2,40C30.8,35,33.1,29.4,38.6,27.6z
	 M29,58.2c-0.1-0.1-0.2-0.3-0.3-0.4c-2.1-2.3-3.7-4.2-3.7-7.8c0-3.8,3-5.7,6.2-7.7l0.1,0c0.5-0.3,1-0.6,1.5-1
	c0.1-0.1,0.2-0.1,0.2-0.2c0.6,0.9,1.3,1.8,2,2.6l0.2,0.2c0,0.2,0,0.4,0,0.6c-0.5,3.2-2.2,6.4-3.9,9.4c-0.2,0.4-0.4,0.7-0.6,1.1l0,0
	c-0.2,0.3-0.3,0.6-0.5,0.9l-0.1,0.3c-0.1,0.2-0.2,0.5-0.3,0.7c-0.1,0.1-0.1,0.2-0.2,0.3c-0.1,0.2-0.2,0.5-0.3,0.7
	C29,58,29,58.1,29,58.2z M30.2,60c0.1-0.3,0.2-0.6,0.4-0.9c0.1-0.2,0.2-0.4,0.3-0.7c0.1-0.1,0.1-0.3,0.2-0.4
	c0.2-0.4,0.4-0.8,0.6-1.2c0-0.1,0.1-0.2,0.1-0.3c0.1-0.2,0.2-0.4,0.4-0.7c0.2-0.3,0.4-0.7,0.6-1c0.2-0.4,0.5-0.9,0.7-1.3
	c0.1-0.1,0.1-0.2,0.2-0.3c0.2-0.3,0.4-0.7,0.5-1c0.1-0.2,0.2-0.4,0.3-0.6c0.1-0.3,0.3-0.5,0.4-0.8c0.1-0.2,0.2-0.5,0.3-0.7
	c0.1-0.2,0.2-0.4,0.3-0.6c0.1-0.2,0.2-0.4,0.3-0.7l0,0c0.5,1.6,1.3,3.2,2.3,4.6c0,0-0.1,0.1-0.1,0.1c0,0-0.1,0.1-0.1,0.1
	c-0.1,0.1-0.1,0.2-0.2,0.3c0,0.1-0.1,0.1-0.1,0.2c-0.1,0.1-0.2,0.2-0.2,0.4c0,0,0,0.1-0.1,0.1c-0.1,0.2-0.2,0.3-0.3,0.5
	c0,0-0.1,0.1-0.1,0.1c-0.1,0.1-0.1,0.3-0.2,0.4c0,0.1-0.1,0.1-0.1,0.2c-0.1,0.1-0.1,0.3-0.2,0.4c0,0.1-0.1,0.2-0.1,0.2
	c-0.1,0.1-0.1,0.3-0.2,0.4c0,0.1-0.1,0.2-0.1,0.2c-0.1,0.2-0.1,0.3-0.2,0.5c0,0.1,0,0.1-0.1,0.2c-0.1,0.2-0.1,0.4-0.2,0.7
	c0,0,0,0.1,0,0.1c0,0.2-0.1,0.4-0.1,0.5c0,0.1,0,0.2,0,0.2c0,0.1,0,0.3-0.1,0.4c0,0.1,0,0.2,0,0.3c0,0.1,0,0.3,0,0.4v0.3
	c0,0.1,0,0.3,0,0.4c0,0.1,0,0.1,0,0.2c0,0.2,0.1,0.4,0.1,0.6c0.4,1.8,1.9,4,6.5,4c0.4,0,0.8,0,1.3-0.1c0.2,0,0.3,0,0.5,0
	c0.3,0.2,0.6,0.5,0.9,0.7l0.6,0.5c-0.4,0-0.8,0.1-1.1,0.1h0c-0.5,0.1-0.9,0.1-1.4,0.2l-0.4,0.1l-0.8,0.1l-0.4,0.1
	c-0.3,0-0.7,0.1-1,0.1l-0.1,0c-0.3,0-0.6,0.1-0.8,0.1l-0.1,0c-0.6,0.1-1.2,0.1-1.7,0.1c0,0,0,0,0,0c-2.4,0.1-4.3-0.4-6.5-2.7
	C29.4,64,29.4,62.3,30.2,60z M47.3,75.1c-2.4,0-5.2-2.7-7.8-5.3c0.2,0,0.3,0,0.5-0.1l0.3,0c0.4,0,0.7-0.1,1.1-0.2l0.6-0.1
	c0.2,0,0.5-0.1,0.7-0.1l0.3,0c0.4,0,0.7-0.1,1.1-0.1c0.2,0,0.3,0,0.5-0.1c0.4,0,0.7-0.1,1.1-0.1c0.2,0,0.4,0,0.6,0
	c0.3,0,0.6,0,1-0.1c0.4,0.3,0.9,0.6,1.4,0.9h0c0.4,0.2,0.8,0.5,1.2,0.7c0.1,0.1,0.2,0.1,0.3,0.2c0.3,0.1,0.6,0.3,0.8,0.4
	c0.2,0.1,0.4,0.2,0.7,0.3c0.1,0,0.2,0.1,0.3,0.1l0,0.1c0,0.1-0.1,0.1-0.1,0.2c-0.2,0.3-0.4,0.5-0.6,0.8l0,0
	c-0.2,0.2-0.4,0.5-0.6,0.7C50,74.4,48.7,75.1,47.3,75.1z M66.4,68.2c-2.9,2.9-7.8,4.7-13.1,4.9l0.2-0.2c0.1-0.1,0.1-0.1,0.1-0.2
	c0.1-0.2,0.2-0.3,0.4-0.5c0,0,0.1-0.1,0.1-0.1h0c0.2,0,0.5,0,0.7,0c0.8,0,1.6-0.2,2.4-0.5h0c0.2-0.1,0.3-0.2,0.5-0.3l0,0
	c0.2-0.1,0.3-0.2,0.5-0.3c0,0,0,0,0.1,0c0.2-0.1,0.3-0.3,0.5-0.4c0.3-0.3,0.7-0.7,1-1c0.1-0.1,0.2-0.3,0.3-0.4
	c0.2-0.2,0.3-0.4,0.5-0.6c0.1-0.2,0.2-0.3,0.3-0.5c0.1-0.2,0.3-0.4,0.4-0.5c0.1-0.1,0.2-0.3,0.3-0.4c0.1-0.2,0.3-0.4,0.4-0.6
	c0-0.1,0.1-0.2,0.1-0.3l0.3-0.2l0.5-0.3c1.8-1.1,3.5-2.4,5.1-3.7l0,0C68.1,64.2,67.8,66.7,66.4,68.2z M68.1,59.3
	C68.1,59.3,68.1,59.3,68.1,59.3c-1.6,1.5-3.3,2.7-5.1,3.9c0,0,0-0.1,0-0.1c0.1-0.3,0.1-0.6,0.1-0.9c0-0.1,0-0.2,0-0.3
	c0-0.2,0-0.5,0-0.7c0-0.1,0-0.2,0-0.3c0-0.2,0-0.4-0.1-0.6c0-0.1,0-0.2,0-0.3c0-0.2-0.1-0.5-0.1-0.7c0,0,0,0,0,0
	c0.1-0.2,0.3-0.4,0.4-0.7c0.1-0.2,0.2-0.4,0.3-0.7c0-0.1,0.1-0.1,0.1-0.2c0.1-0.1,0.1-0.3,0.2-0.4c0-0.1,0.1-0.2,0.1-0.2
	c0.1-0.1,0.1-0.3,0.1-0.4c0-0.1,0.1-0.2,0.1-0.3c0-0.1,0.1-0.2,0.1-0.4c0-0.1,0-0.2,0.1-0.3c0-0.1,0.1-0.2,0.1-0.3
	c0-0.1,0-0.2,0-0.3c0-0.1,0-0.2,0.1-0.3c0-0.1,0-0.2,0-0.2c0-0.1,0-0.2,0-0.3c0-0.1,0-0.2,0-0.2c0-0.1,0-0.2,0-0.3
	c0-0.1,0-0.1,0-0.2c0-0.1,0-0.2,0-0.3c0-0.1,0-0.1,0-0.2c0-0.1,0-0.3-0.1-0.4c0,0,0-0.1,0-0.1c0-0.2-0.1-0.3-0.1-0.5
	c0,0,0-0.1,0-0.1c0-0.1-0.1-0.3-0.1-0.4c0-0.1,0-0.1-0.1-0.2c0-0.1-0.1-0.2-0.1-0.3c0-0.1,0-0.1-0.1-0.2c0-0.1-0.1-0.2-0.1-0.3
	c0-0.1-0.1-0.1-0.1-0.2c0-0.1-0.1-0.2-0.1-0.2c0-0.1-0.1-0.1-0.1-0.2c0-0.1-0.1-0.2-0.1-0.2l-0.1-0.2c0-0.1-0.1-0.1-0.1-0.2
	c0-0.1-0.1-0.1-0.1-0.2c0-0.1-0.1-0.1-0.1-0.2c0-0.1-0.1-0.1-0.1-0.2c-0.1-0.1-0.1-0.1-0.2-0.2c0-0.1-0.1-0.1-0.1-0.2
	c-0.1-0.1-0.1-0.1-0.2-0.2c0,0-0.1-0.1-0.1-0.1c-0.1-0.1-0.1-0.1-0.2-0.2s-0.1-0.1-0.2-0.2c-0.1-0.1-0.1-0.1-0.2-0.2
	c-0.1-0.1-0.1-0.1-0.2-0.2c-0.1-0.1-0.1-0.1-0.1-0.1c0,0-0.1-0.1-0.2-0.2c-0.1-0.1-0.1-0.1-0.1-0.1c0,0-0.1-0.1-0.2-0.1L61,46.5
	l-0.2-0.1l-0.1-0.1l-0.2-0.1L60.5,46l-0.2-0.1c0,0-0.1,0-0.1-0.1c-0.1,0-0.1-0.1-0.2-0.1L60,45.6c-0.1,0-0.1-0.1-0.2-0.1
	c0.1-0.3,0.2-0.6,0.2-0.9l0.2,0c0.5,0.1,1.1,0.3,1.6,0.4c2.6,0.5,5.2,1.3,7.7,2.4c1.8,0.9,2.8,2,2.9,3.3c0,0.1,0,0.1,0,0.2
	C72.4,54.3,70.6,57,68.1,59.3z M73.7,48.7c-0.7-1.2-1.8-2.2-3.1-2.8c0-0.1-0.1-0.2-0.1-0.3c-0.1-0.3-0.2-0.5-0.4-0.8
	c-0.1-0.2-0.2-0.3-0.2-0.5c-0.1-0.2-0.2-0.4-0.2-0.6c-0.1-0.2-0.1-0.4-0.2-0.6c-0.1-0.2-0.1-0.4-0.2-0.6c-0.1-0.3-0.2-0.7-0.3-1
	c-0.1-0.2-0.1-0.4-0.2-0.6c0-0.1,0-0.1,0-0.2c0.3,0.2,0.7,0.4,1,0.5c2.4,1.3,5.4,2.9,5.4,4.1C74.9,46.7,74.4,47.8,73.7,48.7z"/>
</svg>
