<?xml version="1.0" encoding="utf-8"?>
<!-- Generator: Adobe Illustrator 24.1.0, SVG Export Plug-In . SVG Version: 6.00 Build 0)  -->
<svg version="1.1" xmlns="http://www.w3.org/2000/svg" xmlns:xlink="http://www.w3.org/1999/xlink" x="0px" y="0px"
	 viewBox="0 0 512 512" style="enable-background:new 0 0 512 512;" xml:space="preserve">
<style type="text/css">
	<!-- .st0{fill:#1E2136;} -->
	.st0{fill:none;}
	.st1{opacity:0.46;fill:#FFFFFF;}
	<!-- .st1{opacity:0.45;fill:#000000;} -->
	<!-- .st2{fill:rgba(30, 30, 30);} -->
	<!-- .st2{fill:#000000;} -->
	.st2{fill:rgba(225, 225, 225);}


</style>
<g id="Layer_2">
	<rect x="-2.4" y="-2.6" class="st0" width="515.8" height="515.8"/>
	<circle cx="-2.4+515.8/2" cy="-2.6+515.8/2" class="st0" r="515.8/2" fill="red"/>
</g>
<g id="Layer_1">
	<path class="st1" d="M386.5,82.9c16.4,16.4,20.9,39.1,26.2,65.4c0.3,1.7,0.7,3.5,1.1,5.2c0,0,0,0.1,0,0.1c0.4,2,0.9,4,1.3,6.1
		c0.2,1.1,0.5,2.2,0.7,3.3c0.8,3.8,1.7,7.6,2.6,11.4c0.3,1.3,0.6,2.5,1,3.8c1.1,4.1,2.2,8.3,3.5,12.5c0.3,1,0.6,1.9,0.9,2.9
		c1.4,4.2,2.8,8.4,4.5,12.7c0.1,0.4,0.2,0.7,0.4,1.1c-18.4-6-37.1-11.2-56-15.3c-4.3-1-8.5-2-12.6-3l-4.2-1
		c-1.9-0.5-3.7-0.9-5.5-1.4c-0.6-2.2-1.5-4.4-2.5-6.5c-0.2-0.3-0.4-0.6-0.6-0.9c-0.9-1.6-1.9-3.1-3-4.5c-0.6-0.7-1.2-1.5-1.8-2.1
		c-1.2-1.3-2.5-2.6-3.8-3.7c-0.6-0.5-1.2-1-1.8-1.5c-1.5-1.2-3.1-2.2-4.7-3.2c-0.7-0.4-1.4-0.8-2.1-1.2c-1.7-0.9-3.5-1.8-5.5-2.7
		c-0.8-0.3-1.6-0.6-2.4-0.9c-1.5-0.6-3.2-1.2-4.9-1.7c-1.5-0.5-3-0.9-4.5-1.3c-1.2-0.3-2.4-0.6-3.6-0.9c-1.7-0.4-3.3-0.7-5-1.1
		l-0.3-0.1c-2.1-0.4-4.2-0.8-6.3-1.1l-0.1-0.1c-1.3-3.4-2.9-7-4.6-10.7c-0.2-0.5-0.5-1-0.7-1.6c-1.7-3.6-3.6-7.3-5.7-10.9
		c-0.3-0.6-0.7-1.2-1-1.8c-2.2-3.7-4.6-7.4-7.2-11c-0.3-0.4-0.7-0.9-1-1.3c-2.8-3.8-5.9-7.5-9.1-10.9c-0.1-0.1-0.1-0.1-0.2-0.2
		c3.7-0.9,7.3-2,10.9-3.1c0.7-0.2,1.6-0.4,2.3-0.6c13.8-4.2,26.4-9.1,38-13.7C353.1,74,371.5,67.9,386.5,82.9z M357.5,242.6l0.1,0.1
		c1.4,1.5,2.8,3,4.1,4.6l1.2,1.5c1,1.3,2,2.6,3,3.9c0.3,0.5,0.7,1,1.1,1.5c1.2,1.8,2.4,3.7,3.5,5.6c0.2,0.3,0.3,0.6,0.5,0.9
		c0.9,1.7,1.7,3.4,2.6,5.2c0.3,0.6,0.5,1.3,0.8,1.9c0.7,1.7,1.3,3.4,1.8,5.1c0.2,0.5,0.4,1,0.5,1.6c0.6,2.3,1.1,4.6,1.5,7
		c0.1,0.5,0.1,1.1,0.2,1.7c0.2,2,0.4,3.9,0.5,5.9v2.3c0,2.3-0.2,4.6-0.4,6.8c-0.1,0.4-0.1,0.8-0.1,1.2c-0.4,2.8-1,5.6-1.7,8.3
		c-0.2,0.7-0.4,1.5-0.7,2.2c-0.7,2.2-1.4,4.5-2.3,6.8c-0.3,0.9-0.6,1.7-1,2.5c-1.3,3.2-2.8,6.3-4.5,9.3c-1.5,2.7-3.1,5.2-4.8,7.7
		c-0.5,0.8-1.1,1.5-1.7,2.3c-1,1.4-2.1,2.7-3.1,4c-0.7,0.8-1.4,1.6-2.1,2.3c-1,1.1-2,2.1-3,3.1c-0.8,0.7-1.5,1.4-2.3,2.1
		c-1,0.9-2,1.7-3,2.5c-0.9,0.6-1.6,1.3-2.5,1.9c-1,0.7-2.1,1.4-3.1,2.1c-0.9,0.5-1.7,1.1-2.6,1.6c-1.1,0.6-2.2,1.2-3.4,1.7
		c-0.9,0.4-1.7,0.9-2.5,1.2c-1.4,0.6-2.8,1.1-4.1,1.6c-1.2,0.4-2.4,0.8-3.6,1.2c-1.4,0.4-2.8,0.9-4.3,1.1c-1,0.2-1.9,0.4-2.9,0.5
		c-1,0.2-2.2,0.4-3.3,0.6c-1.1,0.2-2.1,0.2-3.1,0.3c-1,0.1-2.1,0.2-3.1,0.3c-1.1,0.1-2.2,0.1-3.2,0.1c-1.1,0-2,0-3.1,0
		s-2.2,0-3.3-0.1c-1.1-0.1-2-0.1-3-0.2c-1-0.1-2.2-0.2-3.3-0.3c-1.1-0.1-2-0.2-2.9-0.4c-1-0.1-2.2-0.3-3.2-0.4c-1.1-0.2-2-0.3-3-0.5
		c-1-0.2-2.1-0.4-3.1-0.6l-0.4-0.1c21.1-4.3,45.7-16.1,67.6-52.6c12.2-22.2,14.1-48.7,5.3-72.4C355.1,240.3,356.3,241.4,357.5,242.6
		L357.5,242.6z M350.8,408.5c-2,3.1-4.1,6.2-6.5,9.3l-0.4,0.5c-2.3,3-4.8,6.1-7.5,9.1l-1,1.1c-2.7,3-5.6,6.1-8.7,9.2
		c-1.5,1.4-3,2.8-4.7,4c-0.4,0.3-0.7,0.5-1.1,0.8c-1.4,1-2.8,1.8-4.3,2.6c-0.2,0.1-0.4,0.2-0.7,0.3c-1.7,0.8-3.4,1.4-5.1,1.9
		c-0.6,0.2-1.2,0.3-1.8,0.4c-1,0.2-2,0.4-2.9,0.6c-1.2,0.2-2.4,0.3-3.6,0.3h-0.5c-3.2,0.1-6.5-0.2-9.6-0.8
		c-9.8-2.1-19.1-5.7-27.8-10.7c-15.3-9.1-30-19.4-43.8-30.6l-2.4-1.9c17.5-4.4,33.3-13.8,45.5-27.1c1.2,0.3,2.4,0.7,3.6,1l1.2,0.3
		c3.1,0.8,6.3,1.6,9.7,2.2l1.6,0.3c3.2,0.6,6.6,1.1,10,1.5c0.8,0.1,1.5,0.2,2.3,0.3c3.2,0.3,6.6,0.5,9.9,0.5c0.7,0,1.3,0.1,1.9,0.1
		c22.3,0.7,44-7.5,60.4-22.7c0.1,1.1,0.1,2.3,0.1,3.4v1c0,2-0.1,4.1-0.3,6.2c-0.1,0.6-0.1,1.2-0.2,1.8c-0.2,1.3-0.3,2.6-0.6,3.8
		c-0.3,1.5-0.6,2.9-0.9,4.4c-0.2,0.9-0.5,1.8-0.7,2.7c-0.6,1.9-1.2,3.9-1.9,5.9c-0.2,0.5-0.4,1-0.6,1.5c-0.9,2.3-2,4.7-3.2,7.1
		l-0.1,0.2C354.6,402.2,352.8,405.3,350.8,408.5L350.8,408.5z M171.1,392.2c-1.7-0.1-3.2-0.4-4.8-0.6c-1.6-0.2-3-0.3-4.4-0.6
		c-2.6-0.5-5.1-1.2-7.6-2.1c-0.7-0.3-1.4-0.6-2.1-0.9c-1.7-0.7-3.3-1.5-4.8-2.3c-0.7-0.4-1.3-0.9-1.9-1.3c-1.3-0.9-2.5-1.9-3.7-3
		c-0.5-0.5-1.1-1.1-1.6-1.6c-1-1.2-2-2.5-2.8-3.9c-0.3-0.6-0.7-1.1-1-1.7c-1.1-2-1.9-4.2-2.5-6.4c-0.5-2-0.8-4.1-1-6.2
		c-0.1-0.6-0.1-1.3-0.1-2c-0.1-1.5-0.1-3,0-4.6c0-0.7,0.1-1.4,0.1-2.2c0.1-1.7,0.3-3.3,0.6-5c0.1-0.5,0.1-1.1,0.2-1.6
		c0.4-2.2,0.8-4.4,1.4-6.6c0.1-0.5,0.3-1,0.4-1.5c0.4-1.7,0.9-3.4,1.5-5c0.2-0.7,0.5-1.4,0.7-2.2c0.5-1.5,1.1-2.9,1.6-4.3
		c0.3-0.7,0.5-1.3,0.8-2c0.7-1.7,1.5-3.4,2.2-5c0.1-0.3,0.2-0.5,0.4-0.8c0.9-1.8,1.8-3.6,2.7-5.2c0.1-0.2,0.2-0.3,0.3-0.5
		c0.1,0.2,0.2,0.4,0.3,0.7c0.6,1.6,1.2,3.2,2,4.7c0.2,0.5,0.5,0.9,0.7,1.4c1,1.8,2.1,3.5,3.4,5.1c12.3,15.7,37.7,24.8,69.7,24.8
		c4.3,0,8.6-0.3,12.8-0.8c11.7-1.3,22.9-5.2,32.9-11.5l0.2-0.1c-1.8,5.3-4.1,10.5-6.9,15.4c-0.1,0.1-0.2,0.2-0.3,0.4
		c-1.8,3.1-3.8,6.1-6,9c0,0-0.1,0.1-0.1,0.1c-1.5,1.9-3.2,3.8-4.9,5.6c-0.1,0.1-0.3,0.3-0.5,0.4c-1.6,1.6-3.2,3.1-5,4.5l-0.7,0.6
		c-13.3,10.1-29.1,16.3-45.7,17.8c-4.1,0.5-8,0.9-11.8,1c-1.1,0.1-2.2,0.1-3.4,0.1c-2.1,0.1-4.2,0-6.2,0
		C174.5,392.4,172.8,392.3,171.1,392.2z M214.4,94.6c0.7,0.1,1.5,0.2,2.2,0.3c3.1,0.5,6.1,1.2,9.1,2.1l0.5,0.2
		c6.6,2.2,12.9,5.4,18.5,9.5c15,11.8,26.6,27.3,33.7,45c-12.5-0.4-25,0.1-37.3,1.6l-0.2-0.1c-0.7-0.5-1.6-1-2.6-1.6l-0.4-0.3
		c-1-0.6-2.2-1.3-3.4-2l-0.1-0.1c-1.3-0.7-2.7-1.5-4.1-2.3l-0.6-0.4c-1.4-0.8-3-1.6-4.6-2.3l-0.9-0.4c-1.6-0.8-3.3-1.6-5.1-2.4
		l-0.9-0.4c-1.9-0.8-3.8-1.6-5.7-2.3l-0.5-0.2c-2-0.7-4.1-1.5-6.2-2.1l-0.4-0.1c-2.1-0.7-4.3-1.3-6.5-1.8l-1-0.2
		c-2.1-0.5-4.3-0.9-6.5-1.3l-1.1-0.2c-2.2-0.3-4.5-0.6-6.7-0.7l-0.9,0c-2.4-0.1-4.7-0.2-7.1-0.1h-0.2c-2.4,0.1-4.7,0.4-7.1,0.8
		l-0.6,0.1c-2.3,0.4-4.6,1-6.8,1.7c-0.3,0.1-0.7,0.2-1,0.3c-2.2,0.7-4.4,1.6-6.5,2.7c-0.4,0.2-0.7,0.4-1,0.5
		c-2.2,1.1-4.3,2.4-6.3,3.8c-0.2,0.2-0.5,0.4-0.7,0.6c-2.2,1.6-4.3,3.4-6.2,5.3c-2.7,2.7-5.2,5.6-7.5,8.6c-0.6,0.8-1.2,1.6-1.8,2.4
		c-1.7,2.3-3.2,4.6-4.6,7c-0.4,0.7-0.9,1.5-1.3,2.2c-1.9,3.3-3.5,6.7-4.9,10.2c-6.1-6.6-11-14.1-14.5-22.3c-0.1-0.3-0.2-0.5-0.3-0.8
		c-0.4-1.3-0.8-2.7-1.1-4.1c-0.1-0.3-0.2-0.6-0.2-1c-0.2-1.6-0.4-3.2-0.3-4.8c0-21.3,31.8-51.2,102.4-51.2
		C208,93.9,211.2,94.2,214.4,94.6z M334,191.6c0.2,0.8,0.4,1.6,0.5,2.4v0.4c0,0.1,0,0.1,0,0.2c0.4,4.5-0.1,9.1-1.6,13.4
		c-0.1,0.2-0.1,0.4-0.2,0.6c-0.5,1.5-1,3-1.6,4.6c-4.6,10.7-10.6,20.7-17.9,29.9c-0.1-7.9-1.4-15.8-3.8-23.4
		c-0.1-0.2-0.1-0.3-0.2-0.5c-0.2-0.6-0.3-1.2-0.5-1.8c-7.7-20.1-21.8-37.1-40.1-48.4c2.9,0,6,0,9,0.1l2.7,0.1l1.5,0.1
		c2.9,0.1,5.9,0.4,8.9,0.7c17.6,1.8,38.8,7,43.3,21.4C333.8,191.3,333.9,191.4,334,191.6z M334,302.8
		c-16.9,28.1-34.7,38.9-51.4,43.5c3.5-9.6,5.8-19.5,6.9-29.7c8.3-11.9,14.1-25.4,17.1-39.6c10.9-11.5,20.8-23.9,29.6-37.1
		C342.4,256.9,346.9,281.4,334,302.8z M264.9,318.5c-0.3,0.3-0.7,0.6-1,0.9c-1.5,1.2-3.1,2.3-4.7,3.4c-0.7,0.5-1.5,0.9-2.2,1.3
		c-1.1,0.6-2.1,1.2-3.2,1.7c-0.9,0.4-1.7,0.9-2.6,1.2c-1.7,0.8-3.5,1.5-5.4,2.1c-0.9,0.3-1.7,0.5-2.6,0.8c-1.3,0.4-2.6,0.7-4,1
		c-0.9,0.2-1.9,0.4-2.8,0.6c-1.5,0.3-3,0.5-4.6,0.7c-0.9,0.1-1.6,0.2-2.5,0.3c-2.4,0.3-4.9,0.4-7.5,0.4c-26.3,0-47.3-6.8-56.2-18.2
		c-1.1-1.4-2.1-3-2.8-4.7c-0.2-0.5-0.3-1.1-0.6-1.7c-0.4-1-0.7-2-0.9-3c16.3,7.4,34.1,11,52,10.5c25-1.3,49.2-9,70.4-22.3
		c-2.4,5.4-5.5,10.4-9.1,15.1c0,0.1-0.1,0.1-0.1,0.1c-1.5,2-3.1,3.8-4.9,5.6l-0.1,0.1C268,315.8,266.5,317.2,264.9,318.5
		L264.9,318.5z M130.4,205.7c0.1-2.8,0.4-5.7,0.9-8.5c0.6-3.4,1.4-6.7,2.4-9.9c0.1-0.2,0.2-0.5,0.2-0.7c2.2-6.2,5.2-12.1,9.1-17.4
		c0.4-0.6,0.9-1.2,1.3-1.8c2-2.7,4.2-5.2,6.6-7.6c1.8-1.8,3.8-3.4,6-4.8c0.7-0.4,1.4-0.7,2.1-1.1c1.4-0.8,2.9-1.5,4.4-2.1
		c0.9-0.3,1.7-0.5,2.6-0.8c1.4-0.4,2.8-0.8,4.3-1.1c0.9-0.2,1.9-0.3,2.8-0.4c1.4-0.2,2.9-0.3,4.3-0.3h2.9c1.4,0.1,2.8,0.1,4.2,0.3
		c1,0.1,2,0.2,3,0.4c1.4,0.2,2.8,0.5,4.2,0.8c1,0.2,1.9,0.4,2.9,0.6c1.4,0.3,2.8,0.7,4.2,1.1c0.9,0.3,1.8,0.5,2.7,0.9
		c1.4,0.5,2.9,1,4.3,1.5l1.4,0.5c-15.7,3-30.1,10.6-41.4,21.8c-17.1,17.4-25.3,43-24.7,76.4C134,238.5,130.3,222.2,130.4,205.7z
		 M252.8,289.8c-22.1-1.4-37.2-6.7-46.2-17c7.9-27.4,37.3-42.4,83.5-42.4c1.6,0,3.1,0.1,4.6,0.1c2.6,12.4,1.5,25.3-3,37.1
		C279.7,276.5,266.6,284,252.8,289.8L252.8,289.8z M197.3,252c-0.7-4.3-1.1-8.7-1.1-13c0-4.7-3.8-8.5-8.5-8.5
		c-4.7,0-8.5,3.8-8.5,8.5c0,29.6,11.5,49.4,34.8,59.7c-0.2,0-0.4,0-0.7,0c-18.2,1.1-36.3-3.5-51.8-13.1c-7.4-45.1-2-77.6,16.5-96.6
		c20.7-21.3,52.2-19.2,58.4-18.5c25.1,11.6,42.5,26,51.7,43C234,213.9,208.9,233,197.3,252L197.3,252z M230,32.8
		c11.7-10.7,27.2-16.3,43.1-15.7c20.5,0,31.8,14.6,46.2,33.1c3.7,4.7,7.4,9.6,11.5,14.4l-0.8,0.3c-4.9,1.8-10,3.7-15.2,5.7
		c-0.7,0.3-1.4,0.5-2.1,0.8c-3.3,1.3-6.7,2.6-10.1,3.9c-1.7-0.3-3.4-0.6-5.1-1c-1.6-0.3-3.4-0.6-5.1-1c-2-0.5-4-1-6-1.6
		c-1.6-0.4-3.2-0.9-4.7-1.3c-2.1-0.6-4.3-1.4-6.4-2.1c-1.3-0.4-2.6-0.9-3.9-1.3c-2.6-0.9-5.1-1.9-7.6-2.9c-0.7-0.3-1.5-0.6-2.2-0.9
		c-13.1-5.4-25.3-11.7-36.6-17.7l-7.7-4C222,38.7,226.1,35.7,230,32.8z M147.8,42.3c4.1-1.4,8.5-2.1,12.9-2
		c11.9,0.7,23.5,3.9,34,9.4c0.1,0,0.1,0.1,0.2,0.1c7,3.2,14.4,7.1,22.1,11.1c8.1,4.2,16.5,8.5,25.4,12.7l1.1,0.5
		c4.4,2,8.9,4,13.5,5.9c0.5,0.2,1,0.4,1.5,0.6c3.9,1.6,7.9,3,12.1,4.4c0.6,0.2,1.1,0.4,1.7,0.6c-1.4,0.4-2.8,0.9-4.3,1.3
		c-1.1,0.3-2.2,0.6-3.3,0.9c-4.3,1.1-8.8,2.1-13.4,3c-6.5-4.3-13.7-7.7-21.2-10c-0.7-0.2-1.4-0.4-2-0.6c-3-0.8-6.1-1.5-9.2-2
		c-0.9-0.1-1.7-0.3-2.6-0.4c-3.9-0.5-7.8-0.8-11.7-0.8c-77.6,0-119.5,35.2-119.5,68.3c0,2.1,0.2,4.2,0.5,6.3
		c0.1,0.9,0.2,1.6,0.4,2.4c0.1,0.3,0.1,0.6,0.1,0.9c-1.9,1.3-3.7,2.6-5.6,3.9c-1,0.7-2,1.3-2.9,2l-0.9,0.6
		C72.8,113.2,94.6,60,147.8,42.3z M55.8,333.9c-1.1-1.2-2.1-2.4-3.2-3.6c-19.8-22.3-35.5-39.8-35.5-74.3c0-36.1,28.5-54.4,58.7-73.8
		l0.6-0.4c4.7-3,9.4-6.1,14.1-9.2c0.8-0.5,1.6-1,2.4-1.6c5.5,8.9,11.9,17.3,19.1,25l2,2.3c-0.3,2.1-0.4,4.1-0.5,5.7
		c-4.3,30.7-20.8,60.5-36.8,89.3c-1.9,3.4-3.8,6.8-5.6,10.2l-0.2,0.4c-1.6,2.8-3.1,5.7-4.6,8.5l-1.4,2.7c-1.1,2.2-2.2,4.3-3.3,6.5
		c-0.5,1.1-1.1,2.2-1.6,3.2c-1.1,2.3-2.2,4.6-3.2,6.8C56.4,332.6,56.1,333.3,55.8,333.9z M67.2,351.5c1-2.9,2.2-5.8,3.4-8.7
		c0.9-2,1.8-4.1,2.8-6.2c0.6-1.4,1.3-2.7,1.9-4.1c1.9-3.8,3.9-7.8,6-11.9c0.4-0.9,0.9-1.7,1.3-2.6c1.1-2.1,2.3-4.3,3.4-6.4
		c1.8-3.3,3.6-6.6,5.5-10c2.3-4.1,4.5-8.2,6.8-12.4c0.5-1,1-1.9,1.6-2.9c1.7-3.1,3.4-6.3,5-9.4c0.9-1.8,1.8-3.6,2.7-5.4
		c1.2-2.4,2.4-4.9,3.6-7.3c1.1-2.2,2.1-4.4,3.1-6.7c0.9-2,1.7-3.9,2.6-5.9c0.9-2.1,1.9-4.3,2.7-6.4l0.1,0.4
		c5.2,15.5,12.7,30.1,22.2,43.4c-0.3,0.3-0.5,0.6-0.8,1c-0.4,0.4-0.8,0.9-1.1,1.4c-0.7,0.8-1.3,1.7-2,2.6c-0.4,0.5-0.7,0.9-1.1,1.4
		c-0.8,1.1-1.6,2.3-2.3,3.5c-0.2,0.4-0.5,0.7-0.7,1.1c-1,1.6-2,3.2-2.9,5c-0.3,0.4-0.5,0.9-0.7,1.4c-0.7,1.3-1.4,2.6-2.1,4
		c-0.3,0.7-0.6,1.4-1,2c-0.6,1.2-1.1,2.5-1.7,3.7c-0.3,0.8-0.7,1.5-1,2.3c-0.5,1.3-1,2.6-1.5,3.9c-0.3,0.8-0.6,1.5-0.9,2.3
		c-0.5,1.5-1,2.9-1.5,4.4c-0.2,0.6-0.4,1.3-0.6,1.9c-0.6,2.1-1.2,4.3-1.7,6.4c-0.1,0.4-0.2,0.9-0.3,1.3c-0.4,1.7-0.7,3.5-1,5.2
		c-0.1,0.8-0.2,1.5-0.3,2.3c-0.2,1.4-0.4,2.8-0.5,4.3c-0.1,0.9-0.1,1.6-0.2,2.5c-0.1,1.4-0.1,2.7-0.2,4.1v2.4c0,1.4,0.1,2.8,0.2,4.2
		c0.1,0.7,0.1,1.4,0.2,2c0.2,2,0.6,4,1,6c4.1,17.5,18.2,38.3,61.9,38.3c4,0,8.1-0.2,12.2-0.6c1.6-0.1,3.2-0.1,4.8-0.3
		c2.9,2.3,5.8,4.6,9,7l5.7,4.5c-3.6,0.3-7.2,0.7-10.6,1.1h-0.2c-4.5,0.5-8.8,1.1-13,1.6l-4.1,0.6l-7.4,1l-3.5,0.5
		c-3.2,0.5-6.4,0.9-9.4,1.3l-0.7,0.1c-2.8,0.4-5.5,0.7-8.1,1l-1,0.1c-5.7,0.7-11.1,1.2-16.2,1.4c-0.1,0-0.2,0-0.2,0
		c-23.3,1-40.6-4.1-62.2-25.6C60,389.3,59.7,372.7,67.2,351.5z M230.4,494.9c-22.8,0-49.9-26.2-74.2-50.3c1.6-0.2,3.2-0.4,4.9-0.6
		l3.2-0.4c3.3-0.5,6.8-0.9,10.3-1.4l6.1-0.9c2.3-0.3,4.5-0.6,6.8-1l3.2-0.4c3.5-0.5,7.1-0.9,10.8-1.4c1.5-0.2,3.1-0.3,4.6-0.5
		c3.4-0.4,6.9-0.7,10.5-1.1c1.9-0.2,3.8-0.3,5.8-0.4c3-0.2,6-0.4,9.1-0.6c4,2.9,8.5,5.9,13.2,9h0.1c3.6,2.3,7.4,4.6,11.3,6.7
		c1.1,0.6,2.1,1.2,3.2,1.7c2.7,1.4,5.3,2.7,8.1,3.9c2.1,0.9,4.2,1.8,6.3,2.6c1,0.4,2,0.9,3,1.2l-0.4,0.5c-0.4,0.6-0.9,1.1-1.2,1.7
		c-1.8,2.5-3.6,5-5.4,7.5l-0.1,0.1c-1.7,2.3-3.5,4.5-5.3,6.7C256.2,488.4,243.7,494.8,230.4,494.9z M412.1,429.2
		c-27.7,27.7-74.4,44.8-124.7,46.2l1.4-2c0.5-0.7,0.9-1.3,1.4-1.9c1.2-1.7,2.4-3.3,3.5-4.9c0.3-0.4,0.6-0.8,0.9-1.2h0.2
		c2.2,0.2,4.3,0.4,6.5,0.4c7.8,0,15.5-1.7,22.6-5.2h0.1c1.7-0.8,3.3-1.8,4.9-2.8l0.4-0.2c1.5-1,2.9-2,4.3-3.2
		c0.2-0.2,0.4-0.3,0.6-0.5c1.6-1.3,3.1-2.7,4.6-4.2c3.3-3.3,6.3-6.4,9.1-9.6c1.2-1.3,2.2-2.6,3.3-3.9c1.6-1.8,3.1-3.7,4.6-5.5
		c1.1-1.4,2.2-2.9,3.3-4.4c1.3-1.7,2.5-3.4,3.6-5.1c0.9-1.4,1.9-2.7,2.7-4.1c1.3-2,2.4-4,3.6-6c0.4-0.8,1-1.6,1.4-2.4l2.9-1.9
		l4.6-3.1c16.8-10.9,33.1-22.6,48.8-35.2l0.4-0.3C428.4,390.8,425.9,415.4,412.1,429.2z M428.7,344.5c-0.2,0.2-0.4,0.3-0.6,0.4
		c-14.9,13.5-30.9,25.7-47.7,36.8c0.1-0.4,0.1-0.7,0.1-1.1c0.5-2.8,0.9-5.7,1.1-8.5c0.1-1,0.1-2,0.2-3c0.1-2.3,0.1-4.5,0-6.7
		c0-1-0.1-2.1-0.2-3.1c-0.2-2.1-0.4-4.1-0.7-6c-0.1-0.9-0.2-1.7-0.4-2.6c-0.4-2.3-0.9-4.5-1.4-6.7c0-0.1-0.1-0.3-0.1-0.5
		c1.3-2.1,2.7-4.3,3.9-6.6c1.2-2.1,2.3-4.2,3.3-6.3c0.3-0.7,0.6-1.4,0.9-2.1c0.6-1.4,1.3-2.8,1.8-4.1c0.3-0.8,0.6-1.6,0.9-2.4
		c0.5-1.2,1-2.5,1.4-3.7c0.3-0.9,0.5-1.6,0.8-2.4c0.4-1.2,0.7-2.3,1-3.5c0.2-0.9,0.4-1.6,0.6-2.4c0.3-1.1,0.5-2.2,0.7-3.3
		c0.2-0.8,0.3-1.6,0.5-2.4c0.2-1.1,0.4-2.2,0.5-3.2c0.1-0.8,0.2-1.5,0.3-2.3c0.1-1.1,0.2-2.1,0.3-3.2c0.1-0.7,0.1-1.5,0.1-2.2
		c0-1.1,0-2.1,0-3.2c0-0.7,0-1.4,0-2.1c0-1.1-0.1-2.2-0.2-3.3c0-0.6-0.1-1.2-0.1-1.8c-0.1-1.3-0.3-2.6-0.5-3.8
		c-0.1-0.4-0.1-0.8-0.2-1.2c-0.3-1.6-0.6-3.2-1-4.8c-0.1-0.3-0.2-0.6-0.2-1c-0.3-1.2-0.6-2.4-1-3.6c-0.2-0.6-0.4-1.1-0.5-1.6
		c-0.3-0.9-0.6-1.9-1-2.8c-0.2-0.6-0.5-1.2-0.7-1.8c-0.3-0.9-0.7-1.7-1-2.6c-0.3-0.6-0.5-1.2-0.8-1.8c-0.4-0.8-0.7-1.6-1.1-2.4
		c-0.3-0.6-0.6-1.2-0.9-1.8c-0.4-0.7-0.8-1.5-1.2-2.2l-1-1.7c-0.4-0.7-0.9-1.4-1.3-2.1c-0.3-0.6-0.7-1.1-1.1-1.7
		c-0.4-0.6-0.9-1.3-1.4-2c-0.4-0.5-0.7-1.1-1.1-1.6c-0.5-0.7-1-1.3-1.4-1.9c-0.4-0.5-0.8-1-1.1-1.5c-0.5-0.6-1-1.2-1.5-1.9
		c-0.4-0.5-0.8-0.9-1.2-1.4c-0.6-0.7-1.1-1.3-1.7-1.9c-0.6-0.6-1.2-1.3-1.8-2s-1.3-1.4-1.9-2c-0.5-0.5-1-1-1.5-1.5
		c-0.5-0.5-0.9-0.9-1.3-1.3c-0.4-0.4-1-1-1.5-1.4c-0.5-0.5-0.9-0.8-1.2-1.1s-1-0.9-1.6-1.4l-1.2-1l-1.6-1.3l-1.1-0.9l-1.6-1.3
		l-1-0.8l-1.6-1.2c-0.3-0.2-0.6-0.5-0.9-0.7c-0.5-0.4-1.1-0.8-1.6-1.2l-0.7-0.5c-0.5-0.4-1.1-0.8-1.6-1.2c0.9-2.9,1.7-5.9,2.2-8.9
		l1.7,0.4c5,1.2,10.2,2.5,15.4,3.7c25.2,4.9,49.8,12.6,73.4,22.8c17.5,8.8,26.4,19,27.2,31.1c0,0.7,0.2,1.3,0.2,1.9
		C469.3,296.8,451.9,322.7,428.7,344.5z M481.3,243.8c-6.9-11.5-17.1-20.8-29.2-26.4c-0.5-0.9-0.9-1.8-1.4-2.7
		c-1.2-2.4-2.4-4.9-3.4-7.3c-0.7-1.7-1.4-3.3-2.1-5c-0.8-1.9-1.5-3.8-2.2-5.8c-0.7-1.9-1.4-3.7-2-5.6c-0.6-1.8-1.1-3.5-1.7-5.3
		c-1-3.2-1.9-6.4-2.8-9.6c-0.5-2-1.1-3.9-1.5-5.9c-0.1-0.5-0.2-1-0.4-1.5c3.1,1.7,6.3,3.4,9.4,5.1c22.7,12.2,51,27.5,51,39.4
		C493.4,224.6,488.7,235.2,481.3,243.8z"/>
	<g>
		<path class="st2" d="M361.4,154.6l-161,203.7h78.1c19.8,0,34.9-6.3,45.2-18.9c10.3-12.6,16.8-32.9,19.6-60.9l23.4,2.5l-8.8,104.7
			H136.4v-28.7l165.2-203.7h-81.9c-8.6,0-16,1.5-22,4.5c-6.1,3-11.1,7.8-15,14.4c-4,6.5-7.2,14.9-9.6,25s-4.4,22.3-5.8,36.6l-22-1.1
			V125.9h216.3V154.6z"/>
	</g>
</g>
</svg>
